<?xml version="1.0" encoding="UTF-8"?>
<svg id="_5portrait-face.svg" data-name="5portrait-face.svg" xmlns="http://www.w3.org/2000/svg" viewBox="250 200 500 950">
  <path d="M555.16,466.23c-1.43-.15-4.59-.23-5.88.86v-.13s-1.73-30.31-1.73-30.31c.07,0,.14,0,.21,0,.56-7.28-2.63-13.85-4.04-20.31-1.6-7.32-4.23-14.28-6.6-21.33-10.49-31.24-26.83-61.66-56.87-77.82-2.29-1.24-3.57-4.71-5.94-6.71,2.73-1.97,5.51-.49,7.88-1.16l9.34-2.63c-7.79-2-15.35-2.08-22.97-4.95,2.8-3.51,6.01-6.17,7.55-10.5-4.56,1.79-8.47,4.22-13.02,4.88.06-.81-.68-1.01-1.45-1.04-.48-.02-1.07.23-1.51.63-.28-.1-.73.17-.96,0-1.17-.86-3.06.84-4.43-.05-3.43-2.22-6.33-5.23-10.07-6.15-1.43-.35-2.05-1.48-3.06-2.19-5.05-2.34-10.01-4.84-15.25-6.75-1.77-.65-3.89-.48-5.7-1.03-2.01-2.42-6.11-.83-8.78.11l-.57-.14c-1.11.09-2.96,0-3.01-1.4-1.53,2.89,1.43,5.79-.03,9.61-2.66-.78-2.21-3.76-4.17-5.23-1.42,3.81-.54,10.95-.77,14.53-1.65.69-9.02-1.63-7.66.76-1.01-.13-2.76-.34-3.8-.29.24-1.57-.03-2.51-1.49-2.51-1.7,0-3.07.17-2.44,2-1.92.22-3.72-.4-5.58-.38,1.67-2.66-16.07-2-16.48-.03-.08.39-.32,1.92.2,2.11,1.23.45,2.59.29,3.62.23,3.43-.22,7.34-1.14,10.44,3.4-7.49.85-11.97,6.94-18.1,8.52-.95,1.79-2.85,2.72-4.07,4.29-7.38,2.48-13.48,7.79-19.94,12.69-13.48,10.22-23.06,23.37-32.74,36.47-4.68,6.32-9.59,11.58-13.34,18.39-8.84,16.06-13.21,34.35-13.74,52.9l1.83,7.64.16.34c-.38.57-.06,1.46-.91,5.3-2.02-1.1-3.64-2.91-5.81-3.74-.75-.29-2.17-.81-2.97-.77-8.74.44-15.63,7.13-15.82,16.43-.19,9.04.32,17.9,1.19,26.92.65,6.79,3.6,12.77,4.74,19.44,2.24,13.18,4.88,25.79,7.23,38.95l2.51,14.02c1.14,6.36,5.79,10.49,11.8,11.41-2.64,10.6,13.9,55.38,14.01,54.59-1.5,11.3-3.11,22.58-4.85,33.81l-1.6,10.32c-1.09.45-2.05,1.14-2.86,1.98-4.28,1.63-8.39,3.73-12.41,5.92-5.66,33.47-5.11,45.04,11.51,73.96,14.94,25.98,30.27,31.34,50.69,50.35,5.9,5.49,12.79,8.81,20.96,9.87,13.01,1.69,25.73,1.79,39.11,1.23,35.15-1.46,55.16-16.5,74.06-44.06l.19-2.03c2.01-.73,1.68-3.13,2.51-4.64,6.62-12.04,12.04-25.39,14.56-39.52,1.28-7.16.06-30.68-3.71-35.67.85-1.61.43-5.15,1.55-6.72.04-5.56,2.39-12.57,3.37-18.23.35-2.01,2.63-3.73,2.67-5.88,16.7-17.06,28.83-29.41,35.33-53.94,4.4-16.6,10.37-6.7,10.83-32.48.11-6,2.53-12.36,1.79-18.34.25-1.96.44-3.93.9-5.85,3.56-19.21,14.98-20.96,18.51-35.62l4.46-18.52c2.41-9.99.05-24.93-8.56-25.83Z" fill="#f8cba6"/>
</svg>