<svg id="_4portrait-head.svg" data-name="4portrait-head.svg" xmlns="http://www.w3.org/2000/svg" viewBox="250 200 500 950">
  <path d="M411.31,279.51l.57.14c-1.75,1.46,13.78,7.73,16.5,10.63-.1-4.44-10.48-10.53-7.72-10.75,1.81.55,3.93.39,5.7,1.03,5.23,1.91,10.2,4.41,15.25,6.75,1,.71,1.62,1.83,3.06,2.19,4.03,3.29,6.77,8.57,10.2,8.21,1.66-.17,3.35-.41,4.31-2.01.23.17.69-.1.96,0-.37.98.47,1.28,1.4,1.35.55.04,1.06-.87,1.57-.94,4.55-.66,8.46-3.09,13.02-4.88-1.54,4.33-4.75,6.98-7.55,10.5,7.62,2.87,15.18,2.95,22.97,4.95l-9.34,2.63c-2.37.67-5.15-.81-7.88,1.16,2.37,2,3.65,5.47,5.94,6.71.05,3.98,5.04,11.68,3.58,17.17-7.05-14.92-27.79-28.68-43.87-29.81-14.15-1-28.03,1.3-41.71,3.53-8.81,1.43-16.11,5.23-23.45,10.39-.03-4.24,3.45-5.77,5.59-9.13-8.28.25-15.31,3.39-22.45,5.79,1.22-1.57,3.12-2.5,4.07-4.29,6.13-1.58,10.61-7.67,18.1-8.52-3.1-4.55-7.01-3.63-10.44-3.4-.22-.92-1.44-.58-2.01-1.78,5.33-.47,9.94-.49,14.67-.53,1.86-.02,3.66.6,5.58.38,1.16-.13,2.66.57,3.93.51,1.04-.05,2.8.16,3.8.29,2.28.73,4.73,1.86,7.73,1.48.82-.1-.1-1.66-.07-2.24.23-3.58-.65-10.73.77-14.53,1.96,1.47,1.51,4.46,4.17,5.23,1.46-3.82-1.5-6.71.03-9.61.05,1.4,1.9,1.49,3.01,1.4Z" fill="#fcfbe8"/>
  <path d="M420.66,279.54c-2.76.22,7.62,6.31,7.72,10.75-2.72-2.91-18.25-9.17-16.5-10.63,2.67-.94,6.77-2.54,8.78-.11Z" fill="#2c2d3b"/>
  <path d="M382.35,296.6c-4.73.04-9.34.06-14.67.53.57,1.2,1.78.86,2.01,1.78-1.02.07-2.39.22-3.62-.23-.52-.19-.28-1.73-.2-2.11.41-1.97,18.15-2.63,16.48.03Z" fill="#2c2d3b"/>
  <path d="M459.17,295.71c-.96,1.6-2.65,1.83-4.31,2.01-3.42.36-6.17-4.92-10.2-8.21,3.75.93,6.64,3.93,10.07,6.15,1.37.89,3.27-.81,4.43.05Z" fill="#2c2d3b"/>
  <path d="M403.33,297.02c-.04.58.89,2.14.07,2.24-3,.38-5.45-.75-7.73-1.48-1.36-2.39,6.02-.07,7.66-.76Z" fill="#2c2d3b"/>
  <path d="M391.86,297.49c-1.27.06-2.77-.64-3.93-.51-.63-1.83.74-2,2.44-2,1.46,0,1.73.94,1.49,2.51Z" fill="#2c2d3b"/>
  <path d="M463.1,296.12c-.52.07-1.02.98-1.57.94-.93-.07-1.77-.37-1.4-1.35.45-.4,1.04-.65,1.51-.63.77.03,1.51.24,1.45,1.04Z" fill="#2c2d3b"/>
  <path d="M411.31,279.51c-1.11.09-2.96,0-3.01-1.4.34-.65,1.45-.47,2.2-.29.59.14,1.7.9.81,1.7Z" fill="#2c2d3b"/>
  <path d="M480.26,317.19c30.04,16.16,46.38,46.58,56.87,77.82.02,5.46-1.77,11.51-.21,16.36-4.6-4.48-8.44-9.49-13.01-14.67-15.71-17.78-33.59-33.16-55.06-43.66-33.65-16.45-58.11-11.86-93.88-3.52-16.65,3.88-32.74,7.46-48.64,13.66-8.63,3.36-14.91,9.53-21.99,14.55.11-4.54-.82-9.18.92-13.45,9.69-13.1,19.27-26.25,32.74-36.47,6.47-4.9,12.56-10.21,19.94-12.69,7.14-2.4,14.17-5.54,22.45-5.79-2.14,3.36-5.63,4.89-5.59,9.13,7.34-5.16,14.63-8.96,23.45-10.39,13.68-2.23,27.56-4.52,41.71-3.53,16.07,1.13,36.82,14.88,43.87,29.81,1.45-5.49-3.53-13.18-3.58-17.17ZM374.5,319.6c0-.27-.22-.48-.48-.48s-.48.22-.48.48.22.48.48.48.48-.22.48-.48Z" fill="#e89f7c"/>
  <path d="M304.16,378.8c.22,7.1,1.79,14.46.58,21.98-.98,6.13-9.23,14.3-9,18.96-3-.44-6.15,1.22-6.83,4.15-4.34,3.12-6.81,8.06-10.71,11.7.53-18.56,4.89-36.84,13.74-52.9,4.54.78,8.01-2.97,12.22-3.87Z" fill="#fcfbe8"/>
  <path d="M543.73,416.34c1.41,6.46,4.59,13.02,4.04,20.3-4.61.4-7.89-4.08-11.5-5,.85-.36,1.15-1.45,1.15-2.74v-15.99c1.9,1.16,3.01,3.01,4.86,5.04.51-.59.85-1.26,1.45-1.6Z" fill="#fcfbe8"/>
  <path d="M543.73,416.34c-.59.34-.94,1.02-1.45,1.6-1.85-2.02-2.96-3.88-4.87-5.04l-.49-1.54c-1.56-4.85.23-10.91.21-16.36,2.37,7.05,5,14.01,6.6,21.33Z" fill="#d9c1ac"/>
  <circle cx="550.62" cy="446.71" r="2.63" fill="#fbf4c8"/>
  <path d="M304.35,377.74c0,.35-.21.71-.2,1.06-4.21.9-7.68,4.65-12.22,3.87,3.75-6.81,8.66-12.07,13.34-18.39-1.74,4.27-.81,8.91-.92,13.45Z" fill="#d9c1ac"/>
  <circle cx="374.02" cy="319.6" r=".48" fill="#fcfbe8"/>
  <path d="M411.86,669.2c.87,3.33.4,7.42,2.11,11.16,5.82-8.97,7.78-19.17,8.67-29.29.66-.62-.14-2.87,1.37-2.93,4.21,5.23,5.02,11.21,7.78,17.51,4.03-5.9,4.43-12.81,5.95-20.03,5.65,4.06,8.39,9.47,11.45,15.25,3.15-6.18,1.76-12.15,1.56-19.09l7.79,7.95c5.8-11.3,11.45-23.03,15.3-35.23,16.74,8.48,18.38,25.86,18.07,42.3-.04,2.15-2.32,3.87-2.67,5.88-7.09,8.16-13.41,16.87-21.58,23.92-1.57.44,3.33-12,.81-15.52-5.01,9.82-10.22,18.54-18.12,26.01-.97.92-1.62,1.97-1.92,2.92-.84.27-1.74.32-2.61.37,1.48-4.26,2.82-9.32,2.37-13.91-7.66,12.98-9.33,11.72-17.61,20.81-7.87,2.84-16.16,4.13-24.43,3.43,4.17-7.99,7.46-10.59,7.37-20.06-4.67,8.12-11.06,13.31-16.82,19.27-6.91-.58-13.77-1.09-20.28-3.78-.18-1.39-1.08-2.54-2.14-3.87-6.82-8.59-11.62-18.01-14.61-27.85-1.08,9.79.52,18.21,4.99,26.02.71.61.98,1.15,0,1.38-5.66-.81-9.61-5.32-14.08-8.4-5.95-10.33-9.84-21.26-11.99-33.9-2.02,2.11-.8,21.3-2.55,19.56-.12-.3-.37-.94-.38-1.25-1.68-8.88-8.51-18.94-7.96-30.66.66-13.97,8.39-27.21,19.02-35.25l6.05,20.54c.33,1.11,1.35,2.83,2.11,3.18.99.45,2.03-1.59,3.84-1.88-.08,6.38-2.09,12.3.51,19.08,3.26-5.89,7.17-10.3,13.3-12.61-.64,5.66-1.67,10.33-.58,15.77,3.37-5.62,6.75-11.31,12.79-14.91,1.06,10.06,2.39,19.3,7.28,27.31,1.34-9.22,3.63-17.29,9.01-24.99l10.84,25.82Z" fill="#fcfbe8"/>
  <path d="M539.85,552.05c.74,5.98-1.68,12.34-1.79,18.34-6.06,6.72-13.35,19.72-14.83,28.88l-1.91-12.69-9.73,27.17-1.04-9.89c-2.78,8.26-5.56,15.25-10.66,21.25-.89-16.1-7.22-30.88-17.69-42.26-2.81-3.05-5.66-3.73-9.34-4.99-38.22-13.03-53.11-5.04-58.73-6.69-11.73-3.46-22.47-6.19-34.88-5-10.38.99-20.57,1.29-30.55,1.68-2,.08-4.07-.85-6.44.43.89,3.77,0,7.78-.32,10.76-7.14,7.57-13.08,16.34-18.96,25.39-4.16,6.4-6.05,13.07-7.31,21.06-5.32-8.1-7.47-16.71-9-25.47-2.27,3.79-1.39,7.44-2.37,11.54-4.63-9.43-5.79-19.74-7.91-30.95-1.86,4.33-1.65,8.61-3.13,13.81l-5.84-16.15c-1.12-3.1-2.77-5.84-5.02-7.72l-.21-1.14-.06-2.05.1-1.69c4.48-2.25,11.43-25.99,14.42-30.96,3.65,14.61,11.11,27.66,21.01,39.46,1.96,2.33,2.87,5.52,5.82,5.81.47,2.1,1.72,3.86,3.19,5.33l.56-2.58c.46-2.08.78-4.02,1.12-6.83,1.23-10.31,5.93-21.29,15.69-26.32,13.04-6.72,26.59-11.66,40.13-15.82,7.71,8.67,19.39,20.56,32.66,20.28,9.21-.19,29.5-4.86,34.71-11.54,2.98-.39,5.27,1.76,7.98,3.4,19.36,11.75,39.39,18.42,38.81,44,9.45-9.39,19.29-21.01,24.21-32.16,3.9-8.85,5.59-18.05,7.91-26.96,4.05,6.39,7.77,13.67,9.4,21.27Z" fill="#fcfbe8"/>
  <path d="M341.94,579.03c2.96,10.63,1.67,22.33,4.77,32.86-10.63,8.04-18.35,21.28-19.02,35.25-.55,11.72,6.27,21.78,7.96,30.66-14.51-12.6-26.51-31.45-36.29-48.56-.87-1.53-1.82-2.8-3.19-3.16-.1.78-16.65-43.99-14.01-54.59l.24-.95c2.25,1.88,3.9,4.61,5.02,7.72l5.84,16.15c1.48-5.2,1.27-9.48,3.13-13.81,2.12,11.21,3.28,21.52,7.91,30.95.98-4.1.1-7.75,2.37-11.54,1.53,8.75,3.68,17.37,9,25.47,1.26-7.99,3.15-14.65,7.31-21.06,5.88-9.05,11.82-17.82,18.96-25.39Z" fill="#d9c1ac"/>
  <path d="M491.91,656.8c.31-16.45-1.34-33.82-18.07-42.3,3.28-10.41,6.38-20.94,8.36-31.66,10.47,11.38,16.8,26.15,17.69,42.26,5.1-6,7.88-12.99,10.66-21.25l1.04,9.89,9.73-27.17,1.91,12.69c1.49-9.17,8.77-22.17,14.83-28.88-.46,25.78-6.43,15.88-10.83,32.48-6.5,24.53-18.63,36.88-35.33,53.94Z" fill="#d9c1ac"/>
  <path d="M540.4,513.49c1.14,2.55-4.05,11.74.69,14.17-2.17,3.31-1.44,8.1-1.57,11.76-.09,2.32-.16,4.83,1.22,6.77-.46,1.92-.65,3.89-.9,5.85-1.63-7.6-5.35-14.88-9.4-21.27l4.4-16.94c.43-1.64.79-6.28-1.56-5.7-1.07.27-3,1.56-3.88,2.19,1.78-2.45,4.05-4.73,6.5-6.52.84-.61,1.6-1.51,2.88-1.86.99,4.36.03,8.04,1.6,11.56Z" fill="#d9c1ac"/>
  <path d="M376.42,706.13c-2.58-1.07-6.11-.78-8.77-2.24-1.03-.56-2.24-1.14-2.99-2.08.97-.23.7-.77,0-1.38-4.47-7.81-6.06-16.23-4.99-26.02,2.99,9.84,7.8,19.26,14.61,27.85,1.05,1.33,1.96,2.49,2.14,3.87Z" fill="#d9c1ac"/>
  <path d="M350.58,693.41c-5.64-3.89-10.7-8.56-14.54-14.35,1.75,1.74.53-17.45,2.55-19.56,2.15,12.65,6.04,23.58,11.99,33.9Z" fill="#d9c1ac"/>
  <path d="M286.85,672.21c.81-.85,1.78-1.53,2.86-1.98-1.36,8.76-2.82,17.49-5.34,26.22-.6-8.07,2.37-15.12,2.88-22.92.41-.72.56-1.5-.4-1.32Z" fill="#e89f7c"/>
  <path d="M485.87,680.91c-1.12,1.57-.7,5.11-1.55,6.72-1.33,2.52-1.9,4.82-2.58,8.14-4.17,20.32-7.8,40.24-9,61.08-.13,2.35-.03,4.29.73,5.97-.83,1.51-.51,3.91-2.51,4.64-5.6-4.55-11.56-8.69-18.72-12.4-.74,6.64,1.1,19.72-4.07,25.53-9.28,10.41-19.6,19.39-30.09,28.35,4.1-9.2,9.51-17.13,14.11-26.11l15.65-30.55-24.76-12.77c-3.92,4.85-6.53,9.91-11.51,13.22-3.94,2.62-10.04,1.87-14.6-1.05-2.94-1.88-5.96-6.36-6.67-10.72,9.1.89,18.08-.2,23.85-6.73-16.56-9.61-33.48-19.01-46.49-30.35,2.66,1.46,6.19,1.17,8.77,2.24,6.51,2.7,13.36,3.2,20.28,3.78l9.45.8c8.27.7,16.56-.59,24.43-3.43,4.84-1.75,12.42-1.93,15.24-6.9.87-.05,1.78-.1,2.61-.37,7.66-2.46,13.43-8.41,19.23-13.41,8.17-7.04,14.5-15.76,21.58-23.92-.98,5.66-3.33,12.67-3.37,18.23Z" fill="#e89f7c"/>
  <path d="M467.66,686.6c-5.8,5-11.57,10.95-19.23,13.41.3-.95.95-2.01,1.92-2.92,7.9-7.48,13.11-16.19,18.12-26.01,2.52,3.52-2.37,15.96-.81,15.52Z" fill="#d9c1ac"/>
  <path d="M406.15,710.71l-9.45-.8c5.76-5.96,12.15-11.14,16.82-19.27.1,9.47-3.19,12.08-7.37,20.06Z" fill="#fbf4c8"/>
  <path d="M445.81,700.38c-2.82,4.97-10.4,5.15-15.24,6.9,8.27-9.09,9.95-7.83,17.61-20.81.45,4.59-.89,9.65-2.37,13.91Z" fill="#fbf4c8"/>
  <path d="M411.86,669.2c2.02.03,3.21-1.41,4.27-3.43l4.27-8.1c1.19-2.27.52-4.97,2.24-6.59-.88,10.11-2.85,20.32-8.67,29.29-1.71-3.74-1.24-7.83-2.11-11.16Z" fill="#d9c1ac"/>
  <path d="M472.86,577.86c-2.95,6.01-7.33,11.1-11.38,17.05-6.7,9.85-17.02,17.32-29.25,18.62-14.29,1.53-28.34.23-42.08-3.02-22.58-5.33-30.19-25.14-41.45-42.67,9.97-.39,20.17-.69,30.55-1.68,12.41-1.18,23.15,1.54,34.88,5,5.61,1.66,20.5-6.33,58.73,6.69ZM373.4,584.65c4.11,1.52,8.81,1.46,12.61,3.71,4.99,1.55,7.21,8.18,11.98,10.08,7.46,2.96,20.07,4.32,27.39,1.32s11.85-7.22,20.6-4.67c2.5.67,6.11-3.47,8.2-4.53,4.25-2.17,12.33-7.16,15.18-11.8-3.3-1.98-7.59.99-10.96.98-16.34-.04-32.69.83-49.39-1.54l-44.16-6.26c-3.53-1.49-7.81-2.68-12.38-3.17.87,2.82,19.38,20.08,20.93,15.88Z" fill="#dd8870"/>
  <path d="M441.85,540.42c3.41-.18,7.56-.78,9.68,2.08-5.22,6.68-25.5,11.35-34.71,11.54-13.27.27-24.95-11.61-32.66-20.28v-1.01c7.77.82,14.72,5.52,21.11,10.31,14.85,11.14,23.61-1.96,36.58-2.64Z" fill="#d9c1ac"/>
  <path d="M296.64,534.71c-2.99,4.97-9.94,28.72-14.42,30.96l-.2-30.19c0-.8.21-2.34.45-3.09l9.32-20.78c2.94,7.31,2.93,15.43,4.85,23.09Z" fill="#fbf4c8"/>
  <path d="M327.23,582.72l-.56,2.58c-1.47-1.47-2.72-3.23-3.19-5.33-4.94-17.99-6.34-34.58,9.62-48.38,9.96-8.61,21.03-16.36,34.78-18.17-8.16,15.21-28.44,16.51-39.85,25.78-9.37,7.61-5.03,34.54-.8,43.51Z" fill="#dd8870"/>
  <path d="M282.18,569.41c-.82.55-1.17-.87-1.02-1.5.08-.36.44-.68.97-.55l.06,2.05Z" fill="#d9c1ac"/>
  <path d="M522.39,427.03c-19.13-2.75-38.5-5.79-58.23-3.52-3.84.44-6.81-.42-9.85-.47,10.29-15.9,58.37-13.1,68.08,4Z" fill="#dd8870"/>
  <path d="M453.53,504.91c.09,5.89,2.32,1.68,7.58,12.91,3.96,8.46-.31,17-8.8,19.62-2.91.9-5.25,2.45-8.6,1.99-.89-.12-1.9.35-1.85.99-12.97.68-21.72,13.77-36.58,2.64-6.39-4.79-13.34-9.49-21.12-10.31-3.65-2.87-7.87-5.4-9.56-10.57-1.84-5.62.96-12.62,5.54-16.57,4.31-3.73,9.34-5.89,12.66-11.48,1.97-3.31,4.32-6.77,6.67-9.54-.64,1.54-.7,3.45-1.68,5.22-2.91,5.27-4.96,10.36-6.81,16.38-2.01-2-3.48-2.43-5.6-1.35-6.19,3.17-11.03,9.38-9.38,16.41.42,1.79,1.33,3.58,2.32,4.38,1.34,1.08,3.16.73,4.6.39-2.22,4.26,16.16,10.55,19.54,10.06-.92-1.37-1.6-3.35-2.71-4.14,12.39,4.81,25.05,5.02,38.06,2.59-1.55,1.95-3.5,3.08-5.71,4.94,7.03.59,15.03-.07,19.76-5.17,1.59-1.71-2.7-3.02-4.24-3.2,3.03-1.54,6.12,1.13,8.43,2.18,4.4-1.55,5.58-9.32,3.99-13.59-1.8-4.83-5-8.18-9.4-10.54l-2.64,5.32c.47-6.56-1.65-12.82-4.13-19.25-3.89-10.09-5.59-20.57-5.8-30.88,3.11,14.26,7.64,27.93,15.46,40.58Z" fill="#dd8870"/>
  <path d="M539.52,539.42c.14-3.65-.6-8.44,1.57-11.76,5.04-7.68,6.37-17.04,5.34-26.76-.33-3.13.17-6.41-1.68-8.62l-.11-5.75,2.05-8.46c3.7-.51,7.52-1.13,10.74,1.92,2.29,2.16,4.48,6.43,3.05,10.58-2.69,7.81-3.75,16.12-7.27,23.67-3.87,8.29-9.05,15.48-12.34,23.99-.26.68-1.14.9-1.35,1.19Z" fill="#dd8870"/>
  <path d="M392.78,426.08c-26.27.13-54.47-8.35-78.43,10.88-1.59-5.41,9.12-17.1,7.1-16.95,13.54-2.64,26.84-2.34,40.57-.79,7.09.8,27,2.46,30.76,6.86Z" fill="#dd8870"/>
  <path d="M395.66,418.27c-1.83-.27-3.74-.1-6.05-.62-19.4-4.37-38.88-6.05-58.35-5.36,9.78-12.4,59.13-8.73,64.4,5.98Z" fill="#dd8870"/>
  <path d="M526.58,435.55c1.41,5.08,3.12,10.31,1.98,16.68-7.31-21.25-49.13-18.4-67.53-21.82,5.48-3.89,35.95-.87,44.32.22,7.59,1,14.69,2.17,21.23,4.91Z" fill="#dd8870"/>
  <path d="M536.4,493.27c-.35-1.34.64-2.92.42-4.61-2.59-20.14-1.04-29.08-.54-48.15,12.26,4.72,7.39,44.34.11,52.76Z" fill="#fcfbe8"/>
  <path d="M294.66,441.46c-.91.38-1.57,1.32-1.66,2.7l-.5,7.86-13.01-2.15c0-.33-.28-.69-.21-1.01,1.95-8.75-2.22-2.15,9.8-11.48,2.41-.09,5.2,1.76,5.58,4.08Z" fill="#d9c1ac"/>
  <path d="M544.75,492.29c-.49.24-1.16.86-1.31,1.82l-3.03,19.38c-1.57-3.53-.62-7.21-1.6-11.56-1.28.36-2.04,1.25-2.88,1.86,3.21-5.6,7.22-11.04,8.72-17.26l.11,5.75Z" fill="#fcfbe8"/>
  <path d="M297.33,449.1c-1.41-.29-.4,1.64-.79,2.64-.63,1.62-2.72,1.15-3.85,1.23.06-.3-.21-.65-.19-.95l.5-7.86c.09-1.38.75-2.32,1.66-2.7.41,2.58,1.77,5.3,2.67,7.64Z" fill="#e89f7c"/>
  <circle cx="296.83" cy="428.76" r="2.6" fill="#d9c1ac"/>
  <path d="M535.33,495.28c.23-.44.54-.82.98-1.05-.14.43-.37,1.38-.98,1.05Z" fill="#fcfbe8"/>
  <path d="M473.47,762.82c-.77-1.67-.87-3.62-.73-5.97,1.2-20.84,4.83-40.76,9-61.08.68-3.32,1.25-5.61,2.58-8.14,3.77,4.98,4.99,28.5,3.71,35.67-2.52,14.13-7.95,27.48-14.56,39.52Z" fill="#dd8870"/>
  <path d="M292.5,452.02c-.02.3.25.66.19.95-3.24,16.07-5.39,32.17-1.73,48.85.69,3.16-.16,7.3.84,9.79l-9.32,20.78-.5-9.05c-.43-7.77-.52-15.8-.94-23.54-.28-5.11-.05-10.07-.38-15.33l-1.36-21.91c-.02-.4.01-.87.02-1.28l.17-11.42,13.01,2.15Z" fill="#fcfbe8"/>
  <path d="M280.65,484.47c.33,5.26.1,10.22.38,15.33-5.16,2.02-3.66,21.64.94,23.54l.5,9.05c-.24.75-.46,2.29-.45,3.09-4.02-5.44-13.09-9.87-15.49-15.08-6.64-14.42,3.15-27.92,14.11-35.94Z" fill="#dd8870"/>
  <path d="M279.32,461.28c0,.41-.05.87-.02,1.28-2.7-.85-5.31-2.36-9-2.43-4.62,11.97-5.8,24.15-7.8,37.17-1.37-9.61-2.77-18.99-3.43-29.02-.27-4.03,1.19-8.23,3.91-10.05,6.96-4.65,11.48,1.22,16.35,3.05Z" fill="#dd8870"/>
  <path d="M541.09,527.67c-4.74-2.44.44-11.62-.69-14.17l3.03-19.38c.15-.97.83-1.59,1.31-1.82,1.86,2.2,1.35,5.49,1.68,8.62,1.03,9.72-.3,19.08-5.34,26.76Z" fill="#f8caa4"/>
  <path d="M427.31,629.75c-3.53,9.17-8.92,16.42-17.7,22.38-2.41-13.84-6.13-15.37-12.57-25.98-1.86,4.49-1.17,8.15-1.89,12.55-4.1-1.86-15.67-17.85-17.1-23.61,25.98,5.05,41.31,4.32,67.06,5.37-.73,4.12-11.07,20.31-15.56,20.02-.92-3.82.4-7.13-2.23-10.73Z" fill="#fcfbe8"/>
  <path d="M492.39,563.53c-4.66-11.35-11.8-20.08-20.25-28.32-1.41-1.37-3.35-2.88-2.98-5.47,14.92,4.39,23.92,18.97,23.24,33.78Z" fill="#dd8870"/>
  <path d="M458.4,579.74c-.14,3.28-1.22,9.08-5.07,9.93-22.2,4.92-45.02,2.54-67.32-1.31-3.8-2.26-8.51-2.19-12.61-3.71-5.2-1.93-8.3-7.32-8.55-12.71l44.16,6.26c16.7,2.37,33.06,1.49,49.39,1.54Z" fill="#fcfcfb"/>
  <path d="M453.33,589.67c-.04.56.13,1.15.85.89-2.09,1.06-5.69,5.2-8.2,4.53-8.75-2.55-13.26,1.66-20.6,4.67s-19.93,1.64-27.39-1.32c-4.78-1.9-6.99-8.53-11.98-10.08,22.3,3.85,45.12,6.23,67.32,1.31Z" fill="#292935"/>
  <path d="M364.85,571.94c.25,5.39,3.35,10.78,8.55,12.71-1.55,4.2-20.06-13.05-20.93-15.88,4.57.49,8.85,1.68,12.38,3.17Z" fill="#0e0d14"/>
  <path d="M454.18,590.56c-.71.26-.88-.33-.85-.89,3.85-.85,4.92-6.65,5.07-9.93,3.37,0,7.66-2.95,10.96-.98-2.85,4.64-10.93,9.63-15.18,11.8Z" fill="#0e0d14"/>
  <path d="M370.75,448.18c2.21,4.31,4.47,8.77,1.91,13.61-1.99,3.76-6.03,6.95-10.67,7.55l-5.93-.49c-6.25-4.38-8.97-11.66-5.67-18.67,4.25-3.28-.31,4.35,4.45,4.7,1.07.08,2.75-.39,3.39-1.87,1.05-2.41-.86-4.58-2.97-5.14,5.14-1.13,10.4-.9,15.49.32Z" fill="#0e0d14"/>
  <path d="M384.06,452.98c2.95,1.69,5.37,4.31,6.12,8.03-8.52,5.48-18.5,9.15-28.19,8.34,4.64-.6,8.68-3.79,10.67-7.55,2.56-4.84.29-9.3-1.91-13.61,2.53.6,5.42.54,7.97,2.58,1.67,1.33,3.89,1.38,5.35,2.21Z" fill="#fcfcfb"/>
  <path d="M350.3,448.95c-.28.39-.25.88.09,1.22-3.3,7-.58,14.29,5.67,18.67-8.85-.74-18.31-3.43-22.94-11.18,5.32-3.69,10.85-7.32,17.17-8.71Z" fill="#fcfcfb"/>
  <path d="M384.06,452.98c-1.46-.84-3.68-.89-5.35-2.21-2.55-2.03-5.44-1.97-7.97-2.58-5.09-1.22-10.36-1.45-15.49-.32l-4.96,1.09c-6.32,1.39-11.85,5.01-17.17,8.71-.16-.27-.69-.37-.73-.7-.28-2.64,26-24.22,49.69-6.89,1.17.86,1.92,1.77,1.98,2.91Z" fill="#dd8870"/>
  <path d="M390.49,450.12c-22.13-16.95-33.95-12.94-55.74-3.29,16.4-14.75,44.01-14.51,55.74,3.29Z" fill="#dd8870"/>
  <circle cx="329.76" cy="450.46" r=".48" fill="#dd8870"/>
  <path d="M331.28,449.56c.79-.86,1.29-1.86,2.74-2.47-.34,1.26-1.01,2.13-2.74,2.47Z" fill="#dd8870"/>
  <path d="M488.12,456.41c1.87,4.12,3.64,8.36,1.68,13.04-1.54,3.67-5.32,6.68-9.58,7.71l-7.75-1.41c-6.12-4.65-8.2-12.6-3.8-19.04.4-.11,1.02.25,1.37.06-.25,1.68-.81,4.18,1.49,5.15,1.34.57,3.63,0,4.33-2.19.48-1.48-.44-3.36-2.13-4.23,4.6-1.74,9.72-.3,14.39.91Z" fill="#0e0d14"/>
  <path d="M507.36,469.2c-3.05,6.44-19.19,9.41-27.14,7.96,4.26-1.03,8.04-4.04,9.58-7.71,1.96-4.68.18-8.92-1.68-13.04,7.48,1.93,14.51,6.68,19.24,12.79Z" fill="#fcfcfb"/>
  <path d="M468.67,456.71c-4.4,6.44-2.32,14.39,3.8,19.04-7.16-1.31-14.34-5.12-19.92-10.33.35-1.78,2.42-4.35,3.79-4.92l10.22-4.24c.97-.4,1.77-.21,2.11.45Z" fill="#fcfcfb"/>
  <path d="M507.36,469.2c-4.73-6.11-11.76-10.86-19.24-12.79-4.67-1.21-9.79-2.65-14.39-.91-1.21.46-2.53.65-3.69,1.27-.35.19-.97-.17-1.37-.06-.34-.67-1.15-.85-2.11-.45l-10.22,4.24c13.9-14.29,39.22-9.88,51.57,6.2,1.06,1.37-.28,1.96-.54,2.5Z" fill="#dd8870"/>
  <path d="M511.2,462.45c-17.68-15.14-30.29-19.76-53.11-10.37,17-13.98,41.84-7.66,53.11,10.37Z" fill="#dd8870"/>
  <path d="M399.75,531.93c1.11.79,1.79,2.77,2.71,4.14-3.38.49-21.76-5.8-19.54-10.06,6.19-1.46,11.79,2.32,16.83,5.92Z" fill="#2c2d3b"/>
  <path d="M447.63,531.09c1.54.18,5.83,1.49,4.24,3.2-4.73,5.1-12.73,5.76-19.76,5.17,2.2-1.86,4.15-2.99,5.71-4.94,3.76-1.11,6.46-3.25,9.81-3.43Z" fill="#2c2d3b"/>
  <path d="M281.03,499.8c.42,7.74.52,15.77.94,23.54-4.61-1.9-6.1-21.52-.94-23.54Z" fill="#f8cba6"/>
  <path d="M355.26,447.86c2.11.56,4.02,2.73,2.97,5.14-.64,1.48-2.32,1.95-3.39,1.87-4.76-.35-.2-7.98-4.45-4.7-.34-.34-.37-.83-.09-1.22l4.96-1.09Z" fill="#fcfbe8"/>
  <path d="M473.73,455.5c1.69.87,2.6,2.75,2.13,4.23-.7,2.18-2.99,2.76-4.33,2.19-2.3-.98-1.74-3.47-1.49-5.15,1.16-.62,2.48-.81,3.69-1.27Z" fill="#fcfbe8"/>
</svg>