<svg id="Calque_9" data-name="Calque 9" xmlns="http://www.w3.org/2000/svg" viewBox="250 200 500 950">
  <path d="M811.67,953.5l5.61-4.96c2.97-2.63,2.75-6.42-.18-9.04-1.46-1.31-4.56-3.12-4.93-5.31-1.31-17.57-3.25-34.72-8.4-51.19,1.3-1.83,1.96-3.98,2.05-6.25.1-2.75-1.39-4.58-3.86-5.51-7.88-8.01-4.66-6.07-10.08-17.71-6.1-13.1-12.65-25.66-22.49-36.4-1.23-1.34-1.94-3.21-2.6-4.61-1.45-3.03-4.47-4.78-6.42-7.32-1.47-1.93-2.49-3.31-4.78-5.17-2.01-1.64-2.93-5.19-5.42-6.98-10.36-7.46-3.33-14.4-15.29-20.01-6.01-2.82-9.18-7.1-11.79-12.53-4.08-8.49-15.1-3.96-31.6-13.01-11.35-6.23-22.59-11.36-34.95-16.05l-9.82-3.72c-2.18-.83-5.58-1.95-7.62-.43.38-2.06-1.78-1.85-3.43-2.37-8.42-2.67-16.5-4.84-25.27-5.82-4.19-.47-7.43-3.2-10.69-5.41-4.44-3.02-9.81-1.58-14.68-2.67-6.13-1.38-11.99-1.8-18.05-2.26-1.11-.08-2.41-1.81-3.89-.95-.49.29-1.37-.34-1.92-.13-.26-.91-1.34-.61-2.07-.68l-1.63-.14c-1.53-1.91-4.15-1-5.92-1.26-.17-.03-19.19-5.69-22.28-6.6-4.09-1.21-7.53-3.73-12.01-4.26-3.3-.39-5.97-2.64-9.01-2.7-.61-.01-1.21-.77-1.94-.73l-2.04.12c1.91-2.66-6.29-5.49-9.61-5.54-3.62-.06-6.21-2.62-8.79-4.97-1.12,1.57-.7,5.11-1.55,6.72,3.77,4.98,4.99,28.5,3.71,35.67-2.52,14.13-7.95,27.48-14.56,39.52-.83,1.51-.51,3.91-2.51,4.64l-.19,2.03c-18.9,27.56-38.91,42.6-74.06,44.06-13.38.55-26.1.46-39.11-1.23-8.17-1.06-15.06-4.37-20.96-9.87-20.42-19.02-35.76-24.37-50.69-50.35-16.62-28.92-17.18-40.48-11.51-73.96,4.02-2.19,8.13-4.29,12.41-5.92.81-.85,1.78-1.53,2.86-1.98l1.6-10.32c-4.31,3.76-8.25,1.09-9.91,3.14-5.62,1.01-10.96,6.65-16.44,9.04-4.2,1.83-8.53,4.47-12.84,5.46-8.16,1.88-15.3,3.43-21.11,10.19-1.06,1.23-3.72,3.61-5.68,3.48-8.51-.55-16.11,1.54-24.2,2.94-9.58,1.65-17.31,6.02-26.29,9.1-13.3,4.57-27.25,6-40.98,8.83-8.89,1.84-17.43.74-25.85,1.56l-1.96.19c-10.39,1.01-20.85,1.33-31.57,3.48-19.01,3.8-25.01-2.71-32.89,2.9-.14.1-.25.27-.35.44-.2.26-.39.53-.61.77-.87.34-1.15,1.19-1.74,1.78-.47-.12-.59.06-.44.46-.62.67-1.1,1.41-1.03,2.44-21.89,4.21-17.91,11.37-34.31,19.25v184.74c18.67,8.11,35.41,20.7,45.98,38.6,5.79,9.8,10.9,21.59,6.32,31.52l-9.85,21.35c-1.65,3.57-1,8.63-2.18,12.3l-7.55,23.44c-7.85,24.37-18.62,47.26-32.73,68.11v36.56h650.4c1.82-11.32,3.62-22.55,3.97-34.59,5.61-11.22,8.25-22.95,10.98-35.11l4.02-17.94c1.9-8.5-10.81-26.78.19-24.05-.11-1.19.71-2.49,1.06-3.58-.34-.5-.34-1.63-.77-2.12-1.43-14.76,8.06-29.92,16.67-41.98,2.17-3.04,5.94-4.99,7.81-8.27,1.49-2.6,3.07-2.91,5.16-4.53,18.56-14.41,41.55-21.22,64.49-17.6.59.09,1.85.55,1.92-.35,1.03-.09,2.03-.03,2.89.58.26.96,1.29.81,2.05.94,10.81,1.95,21.14,5.93,31.26,11.04,6.81,3.44,11.83,8.37,16.65,13.72l-10.16-44.63Z" fill="#565763"/>
</svg>