<svg id="_3portrait-arm-racket.svg" data-name="3portrait-arm-racket.svg" xmlns="http://www.w3.org/2000/svg" viewBox="250 200 500 950">
  <path d="M55.4,1000.22l-9.85,21.35c-.94.36-1.82,1.07-2.56,2.23l-24.06,37.52c-6.26,9.76-11.59,19.16-15.84,29.46v-160.68c18.67,8.11,35.41,20.7,45.98,38.6,5.79,9.8,10.9,21.59,6.32,31.52Z" fill="#f8cba6"/>
  <path d="M43.38,1033.87l-7.55,23.44c-7.85,24.37-18.62,47.26-32.73,68.11v-34.64c4.24-10.29,9.58-19.7,15.84-29.46l24.06-37.52c.74-1.16,1.62-1.87,2.56-2.23-1.65,3.57-1,8.63-2.18,12.3Z" fill="#e89f7c"/>
  <path d="M822.87,1000.37c3.51,7.69,7.02,15.35,10.11,23.68,8.62,23.24,21.47,38.39,32.24,60.07v28.8c-26.93-3.75-63.71,2.64-84.91,21.89-9.18,8.34-17.89,17-24.12,27.18h-47.83c-1.97-6.94-3.51-14.72-6.94-21.17-.43-2.39-.33-5.33-1.11-7.61,1.15-2.06,3.58-2.92,4.52-5.79-1.15-1.1-2.5-1.3-3.97-2.39.95-7.94,6.62-8.44,5.83-11.56-.72-2.83-3.48-3.34-3.24-4.89.37-2.34,4.57-.4,6.4-2.31.54-.56.24-2.61,1.13-3.41,2.73-2.42,6.66-5.47,4.38-9.29-1.42-2.37-4.58,1.38-5.89.79-2.32-1.06-4.07-3.22-6.93-1.8l-6.28-4.17c.26-4.52-2.77-6.51-5.94-9.08-.32-2.08,2.99-3.43,4.78-4.06-5.71-11.11-5.77-1.81-6.77-17.94-.14-2.25,2.53-3.49,2.56-5.57-2.82-1.85-2.82-4.59-2.7-7.53.1-2.33,2.65-3.09,4.68-4.79,1.68-1.41,2.26-3.27,4.45-3,1.47.18,8.69,4.18,8.66,4.07.37,1.43-.11,2.71.64,4.28,3.2-1.16,3.34-4.77,6.06-6.49,3.05-1.93,5.31-5.79,3.57-9.47-.54-1.14-3.7-1.39-2.99-3.19.51-1.31,1.75-2.22,1.77-3.43.02-.86-1.94-2.58-1.48-3.49,1.71-3.36,5.26-5.79,8.44-8.25,5.38,5.83,18.96,5.19,19.72.1.27-1.8,4.18-4.86,5.19-3.11,2.31,4,5.19,6.49,10.08,4.75,2.21-.78,5.36.73,7.35-1,1.09-.95,1.33-2.99,2.38-3.08,1.51-.12,2.97.29,3.55,1.05,2.59,3.37-2.47,5.6-.99,7.17,2.9,3.07,4.38,6.02,6.77,10.4,1.15-10.83,11.29-12.1,10.25-15.23-.75-2.27-4.7-.31-6.3-4.44s9.95-11.43,11.47-11.85c5.21-1.43,11.95-1.03,16.84.5,3.72,1.16,6.58,3.17,10.46.53,1.1,2.41,2.28,3.77,4.1,4.12ZM696.05,1056.24c1.57-1.09.46-3.07-.08-3.64-.44-.47-1.81-.59-3.58-.11-.2.88,2.35,4.65,3.66,3.74Z" fill="#f8caa4"/>
  <path d="M865.21,1113.87v48.11h-99.82c11.6-13.45,25.11-25.44,40.82-34.78,15.37-9.14,32.57-13.06,50.17-14.53,3.22,1.48,6.03,1.27,8.83,1.2Z" fill="#f8caa4"/>
  <path d="M865.21,1112.91v.96c-2.8.07-5.62.27-8.83-1.2-17.59,1.47-34.8,5.38-50.17,14.53-15.71,9.35-29.22,21.33-40.82,34.78h-9.2c6.23-10.17,14.94-18.84,24.12-27.18,21.2-19.26,57.98-25.64,84.91-21.89Z" fill="#e89f7c"/>
  <path d="M767.07,972.2c.59.09,1.85.55,1.92-.35,1.03-.09,2.03-.03,2.89.58.26.96,1.29.81,2.05.94,10.81,1.95,21.14,5.93,31.26,11.04,6.81,3.44,11.83,8.37,16.65,13.72.67.74.66,1.4,1.04,2.23-1.82-.35-3-1.7-4.1-4.12-3.88,2.64-6.74.63-10.46-.53-4.89-1.53-11.63-1.93-16.84-.5-1.52.42-13.12,7.59-11.47,11.85s5.55,2.17,6.3,4.44c1.04,3.12-9.1,4.4-10.25,15.23-2.39-4.39-3.87-7.33-6.77-10.4-1.48-1.57,3.57-3.8.99-7.17-.58-.76-2.04-1.17-3.55-1.05-1.06.09-1.3,2.13-2.38,3.08-1.99,1.73-5.14.21-7.35,1-4.89,1.74-7.77-.75-10.08-4.75-1.01-1.75-4.92,1.31-5.19,3.11-.76,5.09-14.35,5.73-19.72-.1-3.18,2.46-6.72,4.89-8.44,8.25-.46.91,1.49,2.63,1.48,3.49-.03,1.21-1.26,2.12-1.77,3.43-.7,1.81,2.46,2.06,2.99,3.19,1.74,3.68-.52,7.54-3.57,9.47-2.73,1.72-2.86,5.33-6.06,6.49-.75-1.57-.27-2.85-.64-4.28.03.12-7.18-3.89-8.66-4.07-2.19-.27-2.77,1.59-4.45,3-2.02,1.7-4.58,2.45-4.68,4.79-.13,2.94-.13,5.68,2.7,7.53-.03,2.08-2.7,3.32-2.56,5.57.99,16.13,1.06,6.84,6.77,17.94-1.79.63-5.1,1.98-4.78,4.06,3.16,2.56,6.2,4.55,5.94,9.08l6.28,4.17c2.86-1.42,4.61.74,6.93,1.8,1.3.59,4.47-3.16,5.89-.79,2.28,3.82-1.65,6.87-4.38,9.29-.9.79-.59,2.84-1.13,3.41-1.82,1.91-6.03-.03-6.4,2.31-.24,1.56,2.52,2.07,3.24,4.89.79,3.11-4.89,3.61-5.83,11.56,1.47,1.09,2.82,1.29,3.97,2.39-.94,2.86-3.36,3.73-4.52,5.79-.72-2.12-1.86-4.22-2.46-6.96-4.66-21.42-10.52-42-17.83-62.69-2.12-6-2.99-11.97-6.3-16.83-.34-.5-.34-1.63-.77-2.12-1.43-14.76,8.06-29.92,16.67-41.98,2.17-3.04,5.94-4.99,7.81-8.27,1.49-2.6,3.07-2.91,5.16-4.53,18.56-14.41,41.55-21.22,64.49-17.6Z" fill="#f8cba6"/>
  <path d="M700.3,1133.2c.78,2.29.69,5.23,1.11,7.61-12.67-23.81-26.33-63.97-28.76-90.52-.11-1.19.71-2.49,1.06-3.58,3.31,4.86,4.18,10.82,6.3,16.83,7.31,20.69,13.17,41.28,17.83,62.69.6,2.75,1.74,4.85,2.46,6.96Z" fill="#e89f7c"/>
  <path d="M696.05,1056.24c-1.31.91-3.86-2.87-3.66-3.74,1.77-.48,3.14-.36,3.58.11.54.57,1.64,2.55.08,3.64Z" fill="#f8cba6"/>
</svg>