<?xml version="1.0" encoding="UTF-8"?>
<svg id="_6portrait-glasses.svg" data-name="6portrait-glasses.svg" xmlns="http://www.w3.org/2000/svg" viewBox="250 200 500 950">
  <path d="M289.08,437.38c-12.03,9.32-7.85,2.72-9.8,11.48-2.02-1.1-3.64-2.91-5.81-3.74.32.02,1.64.39,1.75-.29.2-3.13.64-7.07,2.98-9.25,3.9-3.63,6.36-8.58,10.71-11.7,2.18.03.61,11.94.17,13.5Z" fill="#292935"/>
  <circle cx="296.83" cy="428.76" r="2.6" fill="#0e0d14"/>
  <path d="M557.33,431.67l-9.57,4.98c-4.61.4-7.89-4.08-11.5-5-4.61-1.18-9.71-2.51-13.88-4.61-19.13-2.75-38.5-5.79-58.23-3.52-3.84.44-6.81-.42-9.85-.47-19.53-.32-39.31-1.9-58.64-4.77-1.83-.27-3.74-.1-6.05-.62-19.4-4.37-38.88-6.05-58.35-5.36-14.39.51-27.42,8.65-35.52,7.45-3-.44-6.15,1.22-6.83,4.15,2.18.03.61,11.94.17,13.5,2.41-.09,5.2,1.76,5.58,4.08.41,2.58,1.77,5.3,2.67,7.64,1.34,8.44.77,16.93,3.52,25.58,3.45,10.83,9.64,21.64,20.43,26.32,13.19,5.71,45.78,9.52,58.85,4.6,4.31-3.73,9.34-5.89,12.66-11.48,1.97-3.31,4.32-6.77,6.67-9.54,5.35-12.85,12.98-26.26,11.9-41.25,8.88-2.99,17.89-2.83,26.69,1.14-1.93,7.02-.12,13.39.01,19.86,3.11,14.26,7.64,27.93,15.46,40.58,3.91,3.99,8.01,8.19,13.93,9.7,14.45,3.67,28.39,4.03,43.47,3.25,5.65-.29,14.45-4.64,18.49-7.54,1.78-2.45,4.05-4.73,6.5-6.52,3.21-5.6,7.22-11.04,8.72-17.26l2.05-8.46c.79-3.25.12-7.28,2.25-10.61.95-1.49,4.65-1.41,6.23-1.24-.01-3.44.32-7.02,2.21-10.44.77-8.25,1.29-16.27-.04-24.12ZM405.49,453.07c-3.23,14.69-9.72,28.7-18.88,40.44-4.93,6.32-11.91,9.62-19.77,9.71-12.05.14-23.57-1.11-35.21-3.51-10.32-2.13-18.11-8.44-23.03-17.66-6.92-12.96-6.97-27.23-5.34-41.48,1.23-10.77,7.2-19.66,18.2-20.57,13.54-2.64,26.84-2.34,40.57-.79,7.09.8,27,2.46,30.76,6.86,10.17,4.69,15.13,15.91,12.7,26.98ZM409.77,435.6c-1.9-4.32-4.55-6.99-7-10.68l46.07,3.86c-3.06,2.6-5.37,4.86-7.91,8.51-10.29-4.04-20.92-4.66-31.16-1.69ZM536.31,494.24c-.14.43-.37,1.38-.98,1.05-4.31,8.3-12.26,15.75-22.22,17.43-13.89,2.35-27.87.88-41.51-1.87-15.83-3.2-22.89-24.91-25.8-38.28,1.53-1.68,2.97-3.34,2.74-5.52-.21-2.02-2.87-1.78-3.79-3.53-2.41-4.61-3.07-11.68-1.5-16.99,2.47-8.35,9.82-14.96,17.78-16.11,5.48-3.89,35.95-.87,44.32.22,7.59,1,14.69,2.17,21.23,4.91,3.29,1.38,7.71,1.51,9.71,4.97,12.26,4.72,7.39,44.34.11,52.76.07.27,0,.7-.09.96Z" fill="#0e0d14"/>
  <circle cx="550.62" cy="446.71" r="2.63" fill="#0e0d14"/>
  <circle cx="550.62" cy="446.71" r="2.63" fill="#f8cba6"/>
</svg>