<svg id="_7portrait-cap.svg" data-name="7portrait-cap.svg" xmlns="http://www.w3.org/2000/svg" viewBox="250 200 500 950">
  <path d="M590.95,392.3c-8.69,15.07-20.98,27.52-33.62,39.37-.58.03-3.76.59-4.06-.95-4.39-22.41-10.38-43.91-20-64.6-10.68-22.97-26.98-41.16-48.8-53.86-1.37-.8-2.5-1.45-2.26-2.94l9.34-2.63c-7.79-2-15.35-2.08-22.97-4.95,2.8-3.51,6.01-6.17,7.55-10.5-4.56,1.79-8.47,4.22-13.02,4.88.06-.81-.68-1.01-1.45-1.04-.48-.02-1.07.23-1.51.63-.28-.1-.73.17-.96,0-1.17-.86-3.06.84-4.43-.05-3.43-2.22-6.33-5.23-10.07-6.15-1.43-.35-2.05-1.48-3.06-2.19.85-3.07-3.59-2.57-4.95-4.26-2.49-3.09-5.1-6.65-9.78-4.62-.63.27-.47,1.67-.52,2.13-1.77-.65-3.89-.48-5.7-1.03-2.01-2.42-6.11-.83-8.78.11l-.57-.14c.89-.8-.22-1.56-.81-1.7-.75-.17-1.86-.36-2.2.29-1.53,2.89,1.43,5.79-.03,9.61-2.66-.78-2.21-3.76-4.17-5.23-1.42,3.81-.54,10.95-.77,14.53-1.65.69-9.02-1.63-7.66.76-1.01-.13-2.76-.34-3.8-.29.24-1.57-.03-2.51-1.49-2.51-1.7,0-3.07.17-2.44,2-1.92.22-3.72-.4-5.58-.38,1.67-2.66-16.07-2-16.48-.03-.08.39-.32,1.92.2,2.11,1.23.45,2.59.29,3.62.23,3.43-.22,7.34-1.14,10.44,3.4-7.49.85-11.97,6.94-18.1,8.52-25.27,6.5-52.29,37.12-67.19,58.53-1.09,1.56-2.31,2.55-3.83,2.9-2.12-39.66,2.05-75.98,29.23-107.32,26.05-30.04,63.26-50.05,102.72-56.04,31.85-4.84,63.22,1.86,90.77,18.25,26.68,15.88,51.62,46.07,66.29,73.02,13.89,25.52,23.92,53.88,14.64,82.27-1.19,3.65-3.76,6.37-3.71,9.86Z" fill="#292935"/>
  <path d="M590.95,392.3c-.05-3.49,2.52-6.21,3.71-9.86,9.28-28.39-.75-56.75-14.64-82.27-14.66-26.95-39.61-57.14-66.29-73.02-27.55-16.39-58.92-23.1-90.77-18.25-39.45,6-76.67,26-102.72,56.04-27.18,31.34-31.35,67.67-29.23,107.32.73,3.47-3.7,3.9-5.97,4.95l-8.8,22.57c-.46,1.17-.87,1.76-1.68,1.29.28-9.58,5.4-18.62,8.52-28.43-1.98-41.37,2.86-78.92,30.51-111.67,23.42-27.75,54.85-47.25,90.33-55.62,46.51-10.97,94.58.68,131.53,30.91,26.44,21.62,46.7,49.85,59.51,81.47,9.68,23.89,11.22,53.71-4.03,74.57Z" fill="#4f515d"/>
  <path d="M441.61,287.32c-5.05-2.34-10.01-4.84-15.25-6.75.05-.46-.11-1.86.52-2.13,4.68-2.04,7.28,1.53,9.78,4.62,1.36,1.69,5.8,1.19,4.95,4.26Z" fill="#2c2d3b"/>
  <path d="M362.03,310.84c-.95,1.79-2.85,2.72-4.07,4.29-7.38,2.48-13.48,7.79-19.94,12.69-13.48,10.22-23.06,23.37-32.74,36.47-4.68,6.32-9.59,11.58-13.34,18.39-8.84,16.06-13.21,34.35-13.74,52.9-2.34,2.18-2.78,6.12-2.98,9.25-.11.68-1.43.3-1.75.29-.75-.29-2.17-.81-2.97-.77-.65-13.27.79-26.33,3.22-39.37.6.51,1.3-.06,1.61-.82.18-.44-.32-1.11-.81-1.47l.05-1.61c.81.47,1.22-.12,1.68-1.29l8.8-22.57c2.26-1.04,6.7-1.48,5.97-4.95,1.52-.35,2.74-1.33,3.83-2.9,14.9-21.41,41.91-52.03,67.19-58.53Z" fill="#0e0d14"/>
  <path d="M273.72,404.97c.13-.72-.3-2.24.8-2.29.49.36.99,1.03.81,1.47-.31.76-1.01,1.32-1.61.82Z" fill="#4f515d"/>
  <path d="M547.77,436.64c.56-7.28-2.63-13.85-4.04-20.3-1.6-7.32-4.23-14.28-6.6-21.33-10.49-31.24-26.83-61.66-56.87-77.82-2.29-1.24-3.57-4.71-5.94-6.71,2.73-1.97,5.51-.49,7.88-1.16-.23,1.49.89,2.14,2.26,2.94,21.82,12.7,38.11,30.89,48.8,53.86,9.62,20.69,15.61,42.18,20,64.6.3,1.54,3.48.98,4.06.95" fill="#0e0d14"/>
</svg>