<svg id="_2portrait-body.svg" data-name="2portrait-body.svg" xmlns="http://www.w3.org/2000/svg" viewBox="250 200 500 950">
  <g>
    <path d="M506.31,691.31c-.15.53.12,1,.59,1.03.52.04,1-.11,1.34-.31,3.04.06,5.71,2.32,9.01,2.7,4.47.53,7.91,3.05,12.01,4.26,3.09.91,22.11,6.57,22.28,6.6,1.18,1.94,4.18,2.95,5.92,1.26l1.63.14c-.26.41-.12.82.12,1.31.21.44.65.66,1.18.33.28-.18.58-.55.77-.95.55-.21,1.43.41,1.92.13-.27,1.26.08,2.19,1.45,2.03.97-.12,2.39.25,2.44-1.08,6.06.45,11.92.88,18.05,2.26,4.87,1.1,10.25-.34,14.68,2.67,3.26,2.22,6.5,4.95,10.69,5.41,8.78.98,16.86,3.15,25.27,5.82,1.65.52,3.8.31,3.43,2.37-2.11,1.57-18.73,8.07-22.66,9.14-5.97,1.62-12.23,2.15-18.17,4.54-1.6.64-4.41-.72-5.19,1.55-2.63,7.64.04,15.04.71,22.06l3.26,33.94c1.54,16-.79,31.82-3.57,48.01l-2.56-51.11c-.89-17.72-1.14-34.07-.87-52.52l-16.32,15.86c1.11-5.39-5.77-5.08-6.37-12.1-.13-1.54,1.13-4.74,3.3-4.9,10.92-.85,3.21-3.64,12.63-8.43-5.08-10.32-10.92-10.66-21.93-8.12-5.13,1.18-8.58-1.64-12.88-2.3s-6.73-2-10.45-3.54c-3.44-1.43-7.82.61-11.17-2.51-3.63-3.38-5.93,4.4-12.05,3.15-1.52-.31-2.19-1.95-3.23-3.85-1.98,2.03-3.13,3.61-5.16,3.31,1.08-12.1-3.45-26.22-2.14-28.04l2.04-.12Z" fill="#565763"/>
    <path d="M557.46,706.85c-1.74,1.68-4.74.67-5.92-1.26,1.77.27,4.39-.65,5.92,1.26Z" fill="#565763"/>
    <path d="M566.98,708.75c-.06,1.33-1.48.96-2.44,1.08-1.37.17-1.72-.76-1.45-2.03,1.48-.86,2.78.87,3.89.95Z" fill="#565763"/>
    <path d="M561.16,707.68c-.19.41-.49.77-.77.95-.53.33-.96.11-1.18-.33-.24-.49-.38-.89-.12-1.31.73.06,1.81-.23,2.07.68Z" fill="#565763"/>
    <path d="M573.72,758.77c-9.26,9-33.78,35.62-50.64,26.6-3.51-1.88-8.01-1.73-11.09-3.17-6.79-3.19-14.17-4.64-21.24-7.25-.18-1.17.25-2.24.93-3.62,8.13-16.48,13.12-33.91,14.72-51.86,2.03.3,3.18-1.28,5.16-3.31,1.04,1.9,1.71,3.54,3.23,3.85,6.12,1.25,8.42-6.53,12.05-3.15,3.35,3.12,7.72,1.08,11.17,2.51,3.73,1.54,6.32,2.91,10.45,3.54s7.75,3.48,12.88,2.3c11.01-2.54,16.84-2.2,21.93,8.12-9.41,4.79-1.71,7.58-12.63,8.43-2.17.17-3.43,3.37-3.3,4.9.6,7.02,7.48,6.71,6.37,12.1Z" fill="#565763"/>
    <path d="M494.65,685.88c.29,2.08,2.43,2.99,3.87,4.86,13,17-1.06,65.97-12.55,82.77-5.3-.33-10.02-3.05-15.2-4.04l.19-2.03c2.01-.73,1.68-3.13,2.51-4.64,6.62-12.04,12.04-25.39,14.56-39.52,1.28-7.16.06-30.68-3.71-35.67.85-1.61.43-5.15,1.55-6.72,2.58,2.35,5.16,4.91,8.79,4.97Z" fill="#565763"/>
    <path d="M504.27,691.43c-1.31,1.82,3.22,15.94,2.14,28.04-1.6,17.95-6.59,35.38-14.72,51.86-.68,1.38-1.11,2.45-.93,3.62-.67-.25-1.81.61-2.31,1.01.17-1.27-1.56-.88-2.36-1.01l-.11-1.43c11.48-16.8,25.55-65.77,12.55-82.77-1.44-1.88-3.57-2.78-3.87-4.86,3.32.05,11.53,2.89,9.61,5.54Z" fill="#565763"/>
    <path d="M508.24,692.04c-.34.19-.82.34-1.34.31-.47-.03-.74-.5-.59-1.03.72-.04,1.33.71,1.94.73Z" fill="#565763"/>
    <path d="M486.09,774.95c.8.13,2.54-.27,2.36,1.01-8.85,20.71-37.56,48.05-59.51,54.09l-13.77,3.79-22.38,3.7c-3.35.47-6.41-1.48-9.79-.57-1.4.38-3.09-.13-4.52-.05-1.31.08-2.65-.26-3.97-.26-.59,0-1.46.23-2,.02-9.88-3.82-25.55-.73-50.98-20.12-27.3-20.81-56.69-46.41-65.1-81.03-3.12-12.85-4.48-25.63-4.41-38.43.03-5.69,1.56-11.88,5.27-16.79-5.45,36.01,2.09,69.11,25.71,95.94,13.11,14.89,27.93,27.05,43.87,38.79,9.91,7.3,19.89,11.77,32.11,14.36,29.44,6.23,60.25,3.41,86.49-12.17,17.4-10.33,29.75-26.07,40.64-42.29Z" fill="#565763"/>
    <path d="M451.4,913.62c-2.31,3.39-5.36,6.27-8.6,10.08l4.02-16.02,16.3-44.85c.23-.63.84-1.21,1.03-1.92s1.01-1.2.99-2.01l8.5-18.32c4.28-9.23,29.08-53.11,38.44-57.69-4.24,8.03-10.01,15.24-15.19,23.22-15.42,23.73-29.47,55.36-35.07,83.2-1.84,9.14-5.41,16.93-10.44,24.31Z" fill="#565763"/>
    <path d="M698.86,773.21l-.07.97c-.37.57-.52,1.31-.77,1.93-3.74,9.42-1.15,20.55-9.15,29.59-6.94,7.85-11.65,16.5-17.92,25.05,2.5-14.13,10.57-25.09,13.84-38.87,2.03-8.55,7.01-14.89,12.97-20.64l.89-.58c.79-.52,1.31.05.8.8-.29.42-.34,1.02-.59,1.75Z" fill="#565763"/>
    <path d="M672.82,903.1l-14.08,11.98c-3.32,2.83-6.71,6.25-6.98,11.38,12.34-13.29,27.09-22.09,44.66-25.5,2.42-.47,4.49-2.77,7.29-1.19-22.05,9.32-47.34,22.48-60.82,44.2l2.83-54.26c.87-16.75,3.98-32.65,11.43-47.45,1.71-3.4,3.38-6.92,7.1-8.27-9.47,18.14-13.81,37.32-14.92,57.36l-1.52,27.54,7.99-28.84c2.94-10.62,24.85-48.66,39.31-52.27-10.75,12.47-21.49,24.15-28.24,39.83,9.78-7.1,18.65-13.01,29.92-16.81-17.12,14.1-30.86,30.93-41.66,50.82,5.86-3.5,10.93-6.76,17.7-8.53ZM647.22,923.35c.86-2.27.93-3.36-.18-3.91-.4,1.72-.59,2.9.18,3.91Z" fill="#565763"/>
    <path d="M615.93,830.01c1.05,14.92-6.5,27.48-12.28,41.72l3.8-27.27,5.67-54.64,2.82,40.18Z" fill="#565763"/>
    <path d="M603.58,873.03c.13,2.48-1.03,2.76-1.18.52.12-1.11.64-1.53,1.18-.52Z" fill="#565763"/>
    <circle cx="670.37" cy="831.96" r=".61" fill="#565763"/>
    <path d="M647.22,923.35c-.76-1.01-.58-2.19-.18-3.91,1.11.55,1.03,1.64.18,3.91Z" fill="#565763"/>
    <path d="M803.78,883.01l-7.97,1.8c-5.16,1.17-10.53,1.7-16.27.62l13.53-6.38c3.9-1.84,9.5-2.13,8.89-7.81,2.47.94,3.96,2.76,3.86,5.51-.08,2.27-.75,4.42-2.05,6.25Z" fill="#565763"/>
    <path d="M667.88,1028.28c.32.75-.18,2.33.85,2.84l2.12,10.59c.14.68-.2,1.51.11,2.29s1.24.73,1.99.59c.43.49.43,1.63.77,2.12-.35,1.09-1.17,2.39-1.06,3.58-11-2.73,1.72,15.55-.19,24.05l-4.02,17.94c-2.72,12.17-5.37,23.89-10.98,35.11-.35,12.03-2.14,23.27-3.97,34.59h-27.62c.22-3.31,1.66-6.5.96-9.8,4.24-16.15,6.07-33.2,7.6-49.87.18-1.95.97-3.62.86-5.76-.14-2.8.61-5.9,1.04-8.66.58-3.67,1.49-8.11.93-11.53.04-1.02.35-2.89.46-3.98.76-7.91,1.9-15.95,1.33-23.87,2.96-24.55,3.32-49.46,3.07-74.28l4.82,11.46c3.97-9.08,9.61-15.91,18.1-19.96-5.2,11.76-12.23,23.85-13.21,36.53-.46,8.1,4.29,14.27,11.91,16.41l4.11,9.6Z" fill="#565763"/>
    <path d="M493.82,958.95c3.61,3.07,8.59,5.81,12.49,8.71l17.03,12.63,14.77,13.16c1.91,1.7,3.27,4.41,5.19,6.43,7.82,8.23,12.98,17.69,17.11,28.23,5.54,14.15,12.37,26.81,19.29,40.44,14.97,29.5,22.68,60.81,22.58,93.44h-29.49c-6.4-25.39-15.72-43.31-21.43-70.26-3.61-17.05-11.01-31.78-22.01-45.31-14.33-17.62-30.8-32.42-49.29-45.81-23.2-16.8-49.88-26.14-77.82-32.01-22.17-4.66-43.2-4.44-65.22,1.05-16.5,4.12-32.79,6.83-48.65,13.05-9.8,3.85-19.2,7.48-27.72,13.68-14.84,10.79-28.72,22.06-42.12,34.57-17.09,15.96-31.85,42.98-40.25,64.68-4.39,11.36-8.85,22.02-14.08,33.03-5.16,10.86-8.45,22.05-10.98,33.33h-16.96c1.18-17.57,4.97-34.66,11.54-51.63,7.78-20.1,15.7-39.64,26.76-58.02l18.84-31.33c10.7-17.8,25.39-31.88,41.96-44.26l17.13-12.8c10.46-7.82,21.53-13.76,34.1-17.62,11.52-3.53,22.39-8.06,34.29-10.3,9.96-1.88,19.26-3.78,29.04-6.54,17.34-4.89,30.79,11.86,52.12,3.4,7.72-3.06,15.34-2.66,23.43-1.31,6.83,1.14,13.14,1.92,19.52,4.7,9.76,4.25,19.84,7.16,29.29,12.21l19.56,10.46Z" fill="#565763"/>
    <path d="M768.99,971.86c-.08.9-1.34.44-1.92.35.09-1.01,1.32-.29,1.92-.35Z" fill="#565763"/>
    <path d="M773.93,973.38c-.77-.14-1.79.02-2.05-.94.57.4,2.04-.11,2.05.94Z" fill="#565763"/>
    <circle cx="773.32" cy="970.99" r=".48" fill="#565763"/>
    <path d="M514.43,1089.33c-11.35-17.21-24.63-32.68-40.46-46.01-13.45-11.32-28.44-19.57-44.12-27.23-12.79-6.25-25.82-8.86-39.97-10.14-14.7-1.33-28.85-3.42-43.53-1.29-17.31,2.51-33.82,6.34-50.68,10.94-20.84,5.68-30.79,14.82-47.11,26.21-.07.32-.8.4-.98.65-.22,1.47-1.98,1.36-2.78,2.05-11.4,9.74-21.32,20.18-30.1,32.86-10.44,15.06-18.76,30.18-24.56,47.73-4.17,12.63-9.44,24.42-12.65,36.89h16.94c3.17-11.72,8.14-22.92,12.6-34.69.68-1.8.69-4.25,2.79-4.06-.02-.25.06-.59.15-.83,1.05-2.89,1.88-6.53,4.84-7.84l.12-.82c.56-3.8,13.97-22.5,18.47-24.91.24-.72,1.07-1.34,1.4-2,.68-1.36,2.07-1.82,3.07-2.8l2.92-2.83c5.7-5.54,11.42-11.32,18.32-15.27.56-.32.91-1.38,1.77-1.3.67-1.22,1.75-2.16,2.97-2.82.24-.13.68,0,.96-.02.38-.65,1.11-.95,1.83-1.04.24-.03.53-.13.77-.09,0-1.94,2.59-2.36,4.19-2.54l.67-.08c.11-1.69,1.76-1.45,2.89-1.89.85-.33,1.77-1.48,2.85-1.23,1.77-2.42,5.13-3.16,7.97-3.78.87-.19,1.67-1.59,2.89-1.14.49.16,1.34-1.09,1.92-.74,1.98,1.18,2.86-1.86,4.73-2.32,35.78-8.66,58.06-8.93,94.79-4.56,14.37,1.71,27.58,8.3,39.5,16.29,3.45,2.8,8.02,3.43,10.49,7.72,3.01.34,4.45,2.63,6.44,3.99,2.07,1.41,4.96,2.5,4.72,5.42.5.07,1.24.6,1.82.57,1.66-.07,3.03,1.08,3.33,2.7.86.04,1.31.89,1.97,1.24,1.88.98,3.58,2.37,4.51,4.31,2.26.87,4.27,2.54,5.03,4.88,1.77,1.08,3.36,2.49,4.5,4.22.19.28.58.78.86.92,1.62.65,2.45,2.19,3.09,3.74,7.74,7.29,13.32,16.76,19.02,26.28,6.99,11.68,11.12,24.31,13.39,37.29h25.96c-2.94-27.61-4.29-48.01-20.52-72.65Z" fill="#565763"/>
    <path d="M568.06,1161.98h-29.97c-3.51-17.35-3.18-32.02-8.99-49.89-5.22-16.04-14.19-30.11-25.38-42.76-10.23-11.57-20.76-22.04-32.71-31.76-8.2-6.67-17.22-11.41-26.02-17.18-3.81-2.5-8.09-3.85-12.19-6-11.9-6.25-24.47-9.96-37.95-11.26-8.81-.85-17.23-2.15-26.04-2.44-15.24-.49-29.66,1.23-44.33,4.56l-24.29,5.53c-18.77,4.27-37.32,14.32-50.75,27.11-1.17,1.11-2.43,2.05-3.86,2.86-.34.19-.5.71-.84.88-11.96,5.88-26.92,23.95-34.88,35.5-6.92,10.03-12.64,20.23-17.45,31.58-7.49,17.67-14.37,35.25-19.72,53.25h-12.53c2.51-13.07,7.79-25.24,12.66-38.11,15.09-39.94,27.87-71.52,61.91-99.68l20.08-16.61c10.19-8.43,21.63-14.01,33.98-19.01,14.14-5.73,28.5-8.63,43.16-12.63,21.24-5.79,41.79-6.67,63.54-3.31,20.68,3.2,39.87,7.95,58.66,17.72,30.86,16.05,57.63,38.58,78.12,66.73,18.88,25.94,16.97,46.01,27.32,76.65,3.24,9.58,6.28,18.82,8.48,28.25Z" fill="#565763"/>
    <path d="M377.66,1063.73l5.27,6.56c-.68.96,1.03,2.05,1.07,3.36.11,3.92.12,7.8-1.16,12.17,3.14.94,10.03,13.51,7.98,15.59-.05,8.85-5.54,16.29-14.22,19.43-4.54,1.64-9.46.82-12.18-3.62-4.65-7.56-4.37-17.15.22-24.65-5.31-6.39-7.27-14.39-4.2-21.66,2.95-6.99,9.8-9.6,17.22-7.17ZM375.41,1077.56c-.81-1.85-1.81-2.54-3.24-2.31-.99.16-1.92.75-2.58,2.29-.86,2.02-.03,7.24,3.15,7.52s3.66-5.27,2.68-7.51ZM378.52,1096.81c-1.39-.52-3.07-.84-4.3.52-2.72,3-3.83,9.35-.37,11.95,2.07,1.56,4.84-.24,5.85-1.41,3.31-3.81,1.25-10.16-1.18-11.06Z" fill="#565763"/>
    <path d="M420.13,1161.98h-24c-5.56-7.02-8.47-16.01-4.98-24.81,2.04-5.14,6.36-9.06,10.67-10.09,5.73-1.38,11.34-.18,15.52,3.71,8.97,8.36,9.34,21.44,2.79,31.19ZM410.44,1154.27c4.81-2.17,5.6-7.2,3.73-11.25-1.67-3.59-6-6.6-10.42-4.65-4.56,2.02-5.73,7.28-3.55,11.66,1.57,3.14,5.68,6.29,10.24,4.23Z" fill="#565763"/>
    <path d="M387,1161.98h-9.56l-1.74-19.13c-1.69-.39-2.56,1.34-2.47,2.75l1.11,16.38h-9.21c-.25-4.64-.36-9.39-1-14.58-.16-1.31-2.39-1.29-2.35-.04l.4,14.62h-7.89c.43-7.53-3.57-22.35,5.07-26.15,3.06-1.35,5.74-.11,8.36,2.61,2.96-5.32,6.49-9.14,11.68-7.02,6.85,2.8,6.08,23.43,7.6,30.55Z" fill="#565763"/>
    <path d="M476.23,1161.98h-10.21l-3.73-26.62c-2.67-.03-4.36.38-6.59.1-1.01-3.54-1.36-6.88-1.29-10.7,8.42-.75,16.21-1.6,24.42-1.49.38,3.89.88,7.03.56,10.42-2.47.76-4.61.31-6.81,1.28l3.64,27.01Z" fill="#565763"/>
    <path d="M329.8,1161.98h-9.68c-.16-4.69-3.58-9.24-8.6-9.22-4.73.01-8.09,4.42-7.9,9.22h-8.73c-.31-6.81,1.25-14.15,7.63-17.96s13.58-3.02,19.66,1.3c4.88,3.47,7.47,10.08,7.62,16.66Z" fill="#565763"/>
    <path d="M291.08,1161.98h-9.74c-.58-4.29,1.91-12.77-3.46-12.26-1.62.15-2.31,1.52-2.3,3.57l.05,8.69h-9.86c-.43-8.09-1.21-20.34,9.55-22.85,5.75-1.34,11.86.21,14.19,5.85,2.29,5.52,1.25,11.51,1.57,17.01Z" fill="#565763"/>
    <path d="M454.42,1161.98h-9.77c-.81-2.9-.07-6.98-1.49-9.98-3.75-4.09-5.08-10.35-.97-14.97-.55-4.08-1.13-7.5-1.21-11.71,2.99-.84,5.96-1.06,9.23-.55l4.21,37.21Z" fill="#565763"/>
    <path d="M440.16,1161.98h-9.08l-3.28-35.75c3.2-.81,5.83-1.19,8.94-.53l3.42,36.28Z" fill="#565763"/>
    <path d="M236.74,1161.98h-11.46c.3-3.44,3.79-8.5,1.41-11.19-.5-.57-2.4-.53-3.1-1.64-2.07-3.28.49-6.82.06-10.01,3.31,0,6.72-.74,9.83,1.53,6.74,4.91,5.4,14.59,3.25,21.31Z" fill="#565763"/>
    <path d="M346.3,1161.98h-11.45c.42-2.92,2.79-5.27,3.09-8.78.13-1.53-3.39-.9-3.78-1.9-.74-1.94-1.87-6.12-.57-8.29,1.74-2.92,7.33-2.34,10-.88,6.95,3.8,4.48,14.14,2.7,19.85Z" fill="#565763"/>
    <path d="M351.34,1110.08c1.29,4.11,1.23,7.9,1.67,12.69-6.13,4.94-15.65,7.31-23.05,3.01-7.08-4.12-9.69-12.42-8.83-20.34.83-7.61,6.07-13.31,13.66-17.85-5.03-1.88-8.55.62-13.1-.19-1.62-4.75-1.63-10.16-1.63-15.35l22.81-3.21,7.56,27.9c-4.55,1.38-12.34,1.47-14.15,7.36-.75,2.44-.76,5.54,1.46,6.97,4.04,2.6,8.75,1.05,13.59-1.01Z" fill="#565763"/>
    <path d="M257.23,1141.2c1.93,2.83,1.46,5.98.24,8.21s-3.73,4.75-6.9,3.72c-2.68-.87-3.49-3.95-3.56-6.13-.09-2.57.81-5.42,3.33-6.99,2.13-1.32,5.23-1.22,6.89,1.19Z" fill="#565763"/>
    <path d="M51.35,735.85c-.06,1.11.34,2.12,1.23,3.25,12.94,16.36,23.41,33.71,30.23,53.53,5.73,16.67,10.67,32.75,14.56,49.91,2.77-7.94,3.01-15.89,3.43-24.31l3.01-60.33c4.09,10.1,6.1,21.04,5.64,32.67-.82,20.75-4.06,40.78-8.71,60.98-1.48,6.41-1.74,12.36-1.53,18.96.71,22.97-.73,45.26-1.33,68.14-.29,11.11,2.46,21.43,3.76,32.04,4.34-10.75,6.01-20.78,7.81-31.55,2.86-17.14,6.93-33.43,12.74-49.76l6.95-21.99-6.93,64.71c-5.35,49.94-11.74,98.67-20.89,148.06l-15.17,81.83h-39.87c.75-15.72,1.27-32.11-4.41-47.38-3.99-10.73-5.91-20.69-3.87-32.21,2.54-14.36,5.85-28.36,9.24-42.62.71-2.99-1.57-5.63-3.87-5.91,1.18-3.67.53-8.73,2.18-12.3l9.85-21.35c6.82-8.87,3.44-10.92,13.88-22.24,11.04-11.98-6.45-42.08-15.19-52.55,14.5,4.92,27.25,13.91,32.34,28.88,4.52-4.54,4.83-10.18,3.78-16.09-2.9-16.19-12.02-30.07-24.66-40.82-14-11.9-29.05-21.62-44.79-31.12-4.48-2.7-8.57-5.56-10.87-10.37,5.75,4.91,11.22,8.77,18.15,11.6,11.53,4.71,21.94,10.73,31.78,18.2-7.13-11.32-14.5-22.08-24.1-31.49-6.94-6.8-14.23-12.62-20.58-19.98l-5.15-5.98c16.57,10.16,30.55,23.89,42.32,40.1,4.72,6.5,8.9,12.65,14.08,18.36-7.21-16.65-16.9-27.51-25.87-43.6,12.53,9.81,21.61,20.33,28.45,34.37,5.29,10.87,10.67,21.15,16.5,31.69,3.45,6.22,5.35,12.44,6.89,19.01-.45-17.36-4.03-33.26-7.67-49.83-3.33-15.17-7.77-29.38-14.65-43.18-3.88-7.79-8.82-14.32-12.12-22.79,13.45,12.41,24.15,26.9,30.22,43.98,2.37,6.68,2.72,13.57,6.78,19.42.17-42.29-8.59-82.19-30.97-117.12,1.43,2.23-11.94-11.77-9.12-8.34l-3.45-4.21c-5.31-6.48-10.08-13.04-13.98-20.02-.09-1.28.66-2.09,1.47-2.9-3.59-.91,13.13,15.26,12.47,12.63Z" fill="#565763"/>
    <path d="M189.82,726.02c.3-1.11,1.29-1.96,2.04-2.72-1.75,13.56-4.4,26.73-7.65,40.56-5.93,25.26-12.53,49.64-19.71,74.56-5.1,17.68-3.46,31.45-12.05,46.72l2.39-21.51c1.06-9.51,1.21-18.62,3.02-28.12,5.18-27.26,11.93-53.48,21.19-79.63,3.69-10.41,8.08-19.76,10.78-29.86Z" fill="#565763"/>
    <circle cx="151.76" cy="886.8" r=".61" fill="#565763"/>
    <path d="M40.62,721.43c.42-.17.58-.94.97-1.21-.3.42-.62.83-.97,1.21Z" fill="#565763"/>
    <path d="M248.53,697.2l-6.16,67.41c-1.62,17.76-10.92,33.61-16.72,50.38l-5.95,17.19c1.03-17.58,3.67-33.76,7.22-50.68l12.99-61.99c2.27-10.84,7.19-20.6,8.84-30.82l-.22,8.52Z" fill="#565763"/>
    <circle cx="40.15" cy="842.06" r=".48" fill="#565763"/>
    <path d="M277.48,799.24c10.44,27.89,6.61,29.29,4.2,60.73-2.44-18.05-4.16-35.98-7.85-54.21-2.03-10.04-3.96-19.4-5.05-29.77l8.7,23.25Z" fill="#565763"/>
    <circle cx="442.34" cy="925.29" r=".61" fill="#565763"/>
    <path d="M766.79,812.52c-2.22,1.86-7.29-6.27-6.42-7.32,1.94,2.54,4.97,4.28,6.42,7.32Z" fill="#565763"/>
    <path d="M698.79,774.18l.07-.97c.45.37.26.65-.07.97Z" fill="#565763"/>
    <circle cx="701.16" cy="770.86" r=".48" fill="#565763"/>
    <path d="M289.71,670.23c-1.09.45-2.05,1.14-2.86,1.98-4.28,1.63-8.39,3.73-12.41,5.92.72-3.14,12.47-12.67,6.97-15.09,1.66-2.04,5.61.62,9.91-3.14l-1.6,10.32Z" fill="#565763"/>
    <circle cx="257.6" cy="679.45" r=".48" fill="#565763"/>
    <circle cx="258.56" cy="677.53" r=".48" fill="#565763"/>
    <path d="M46.28,1161.98H3.1v-36.56c14.11-20.85,24.88-43.73,32.73-68.11l7.55-23.44c2.3.28,4.58,2.92,3.87,5.91-3.39,14.26-6.7,28.26-9.24,42.62-2.04,11.51-.12,21.48,3.87,32.21,5.68,15.26,5.16,31.65,4.41,47.38Z" fill="#565763"/>
  </g>
  <g>
    <path d="M506.31,691.31c-.15.53.12,1,.59,1.03.52.04,1-.11,1.34-.31,3.04.06,5.71,2.32,9.01,2.7,4.47.53,7.91,3.05,12.01,4.26,3.09.91,22.11,6.57,22.28,6.6,1.18,1.94,4.18,2.95,5.92,1.26l1.63.14c-.26.41-.12.82.12,1.31.21.44.65.66,1.18.33.28-.18.58-.55.77-.95.55-.21,1.43.41,1.92.13-.27,1.26.08,2.19,1.45,2.03.97-.12,2.39.25,2.44-1.08,6.06.45,11.92.88,18.05,2.26,4.87,1.1,10.25-.34,14.68,2.67,3.26,2.22,6.5,4.95,10.69,5.41,8.78.98,16.86,3.15,25.27,5.82,1.65.52,3.8.31,3.43,2.37-2.11,1.57-18.73,8.07-22.66,9.14-5.97,1.62-12.23,2.15-18.17,4.54-1.6.64-4.41-.72-5.19,1.55-2.63,7.64.04,15.04.71,22.06l3.26,33.94c1.54,16-.79,31.82-3.57,48.01l-2.56-51.11c-.89-17.72-1.14-34.07-.87-52.52l-16.32,15.86c1.11-5.39-5.77-5.08-6.37-12.1-.13-1.54,1.13-4.74,3.3-4.9,10.92-.85,3.21-3.64,12.63-8.43-5.08-10.32-10.92-10.66-21.93-8.12-5.13,1.18-8.58-1.64-12.88-2.3s-6.73-2-10.45-3.54c-3.44-1.43-7.82.61-11.17-2.51-3.63-3.38-5.93,4.4-12.05,3.15-1.52-.31-2.19-1.95-3.23-3.85-1.98,2.03-3.13,3.61-5.16,3.31,1.08-12.1-3.45-26.22-2.14-28.04l2.04-.12Z" fill="#292935"/>
    <path d="M557.46,706.85c-1.74,1.68-4.74.67-5.92-1.26,1.77.27,4.39-.65,5.92,1.26Z" fill="#2c2d3b"/>
    <path d="M566.98,708.75c-.06,1.33-1.48.96-2.44,1.08-1.37.17-1.72-.76-1.45-2.03,1.48-.86,2.78.87,3.89.95Z" fill="#2c2d3b"/>
    <path d="M561.16,707.68c-.19.41-.49.77-.77.95-.53.33-.96.11-1.18-.33-.24-.49-.38-.89-.12-1.31.73.06,1.81-.23,2.07.68Z" fill="#2c2d3b"/>
    <path d="M573.72,758.77c-9.26,9-33.78,35.62-50.64,26.6-3.51-1.88-8.01-1.73-11.09-3.17-6.79-3.19-14.17-4.64-21.24-7.25-.18-1.17.25-2.24.93-3.62,8.13-16.48,13.12-33.91,14.72-51.86,2.03.3,3.18-1.28,5.16-3.31,1.04,1.9,1.71,3.54,3.23,3.85,6.12,1.25,8.42-6.53,12.05-3.15,3.35,3.12,7.72,1.08,11.17,2.51,3.73,1.54,6.32,2.91,10.45,3.54s7.75,3.48,12.88,2.3c11.01-2.54,16.84-2.2,21.93,8.12-9.41,4.79-1.71,7.58-12.63,8.43-2.17.17-3.43,3.37-3.3,4.9.6,7.02,7.48,6.71,6.37,12.1Z" fill="#2c2d3b"/>
    <path d="M494.65,685.88c.29,2.08,2.43,2.99,3.87,4.86,13,17-1.06,65.97-12.55,82.77-5.3-.33-10.02-3.05-15.2-4.04l.19-2.03c2.01-.73,1.68-3.13,2.51-4.64,6.62-12.04,12.04-25.39,14.56-39.52,1.28-7.16.06-30.68-3.71-35.67.85-1.61.43-5.15,1.55-6.72,2.58,2.35,5.16,4.91,8.79,4.97Z" fill="#292935"/>
    <path d="M504.27,691.43c-1.31,1.82,3.22,15.94,2.14,28.04-1.6,17.95-6.59,35.38-14.72,51.86-.68,1.38-1.11,2.45-.93,3.62-.67-.25-1.81.61-2.31,1.01.17-1.27-1.56-.88-2.36-1.01l-.11-1.43c11.48-16.8,25.55-65.77,12.55-82.77-1.44-1.88-3.57-2.78-3.87-4.86,3.32.05,11.53,2.89,9.61,5.54Z" fill="#0e0d14"/>
    <path d="M508.24,692.04c-.34.19-.82.34-1.34.31-.47-.03-.74-.5-.59-1.03.72-.04,1.33.71,1.94.73Z" fill="#0e0d14"/>
    <path d="M486.09,774.95c.8.13,2.54-.27,2.36,1.01-8.85,20.71-37.56,48.05-59.51,54.09l-13.77,3.79-22.38,3.7c-3.35.47-6.41-1.48-9.79-.57-1.4.38-3.09-.13-4.52-.05-1.31.08-2.65-.26-3.97-.26-.59,0-1.46.23-2,.02-9.88-3.82-25.55-.73-50.98-20.12-27.3-20.81-56.69-46.41-65.1-81.03-3.12-12.85-4.48-25.63-4.41-38.43.03-5.69,1.56-11.88,5.27-16.79-5.45,36.01,2.09,69.11,25.71,95.94,13.11,14.89,27.93,27.05,43.87,38.79,9.91,7.3,19.89,11.77,32.11,14.36,29.44,6.23,60.25,3.41,86.49-12.17,17.4-10.33,29.75-26.07,40.64-42.29Z" fill="#292935"/>
    <path d="M451.4,913.62c-2.31,3.39-5.36,6.27-8.6,10.08l4.02-16.02,16.3-44.85c.23-.63.84-1.21,1.03-1.92s1.01-1.2.99-2.01l8.5-18.32c4.28-9.23,29.08-53.11,38.44-57.69-4.24,8.03-10.01,15.24-15.19,23.22-15.42,23.73-29.47,55.36-35.07,83.2-1.84,9.14-5.41,16.93-10.44,24.31Z" fill="#2c2d3b"/>
    <path d="M698.86,773.21l-.07.97c-.37.57-.52,1.31-.77,1.93-3.74,9.42-1.15,20.55-9.15,29.59-6.94,7.85-11.65,16.5-17.92,25.05,2.5-14.13,10.57-25.09,13.84-38.87,2.03-8.55,7.01-14.89,12.97-20.64l.89-.58c.79-.52,1.31.05.8.8-.29.42-.34,1.02-.59,1.75Z" fill="#2c2d3b"/>
    <path d="M672.82,903.1l-14.08,11.98c-3.32,2.83-6.71,6.25-6.98,11.38,12.34-13.29,27.09-22.09,44.66-25.5,2.42-.47,4.49-2.77,7.29-1.19-22.05,9.32-47.34,22.48-60.82,44.2l2.83-54.26c.87-16.75,3.98-32.65,11.43-47.45,1.71-3.4,3.38-6.92,7.1-8.27-9.47,18.14-13.81,37.32-14.92,57.36l-1.52,27.54,7.99-28.84c2.94-10.62,24.85-48.66,39.31-52.27-10.75,12.47-21.49,24.15-28.24,39.83,9.78-7.1,18.65-13.01,29.92-16.81-17.12,14.1-30.86,30.93-41.66,50.82,5.86-3.5,10.93-6.76,17.7-8.53ZM647.22,923.35c.86-2.27.93-3.36-.18-3.91-.4,1.72-.59,2.9.18,3.91Z" fill="#2c2d3b"/>
    <path d="M615.93,830.01c1.05,14.92-6.5,27.48-12.28,41.72l3.8-27.27,5.67-54.64,2.82,40.18Z" fill="#2c2d3b"/>
    <path d="M603.58,873.03c.13,2.48-1.03,2.76-1.18.52.12-1.11.64-1.53,1.18-.52Z" fill="#2c2d3b"/>
    <circle cx="670.37" cy="831.96" r=".61" fill="#2c2d3b"/>
    <path d="M647.22,923.35c-.76-1.01-.58-2.19-.18-3.91,1.11.55,1.03,1.64.18,3.91Z" fill="#565763"/>
    <path d="M803.78,883.01l-7.97,1.8c-5.16,1.17-10.53,1.7-16.27.62l13.53-6.38c3.9-1.84,9.5-2.13,8.89-7.81,2.47.94,3.96,2.76,3.86,5.51-.08,2.27-.75,4.42-2.05,6.25Z" fill="#2c2d3b"/>
    <path d="M667.88,1028.28c.32.75-.18,2.33.85,2.84l2.12,10.59c.14.68-.2,1.51.11,2.29s1.24.73,1.99.59c.43.49.43,1.63.77,2.12-.35,1.09-1.17,2.39-1.06,3.58-11-2.73,1.72,15.55-.19,24.05l-4.02,17.94c-2.72,12.17-5.37,23.89-10.98,35.11-.35,12.03-2.14,23.27-3.97,34.59h-27.62c.22-3.31,1.66-6.5.96-9.8,4.24-16.15,6.07-33.2,7.6-49.87.18-1.95.97-3.62.86-5.76-.14-2.8.61-5.9,1.04-8.66.58-3.67,1.49-8.11.93-11.53.04-1.02.35-2.89.46-3.98.76-7.91,1.9-15.95,1.33-23.87,2.96-24.55,3.32-49.46,3.07-74.28l4.82,11.46c3.97-9.08,9.61-15.91,18.1-19.96-5.2,11.76-12.23,23.85-13.21,36.53-.46,8.1,4.29,14.27,11.91,16.41l4.11,9.6Z" fill="#2c2d3b"/>
    <path d="M493.82,958.95c3.61,3.07,8.59,5.81,12.49,8.71l17.03,12.63,14.77,13.16c1.91,1.7,3.27,4.41,5.19,6.43,7.82,8.23,12.98,17.69,17.11,28.23,5.54,14.15,12.37,26.81,19.29,40.44,14.97,29.5,22.68,60.81,22.58,93.44h-29.49c-6.4-25.39-15.72-43.31-21.43-70.26-3.61-17.05-11.01-31.78-22.01-45.31-14.33-17.62-30.8-32.42-49.29-45.81-23.2-16.8-49.88-26.14-77.82-32.01-22.17-4.66-43.2-4.44-65.22,1.05-16.5,4.12-32.79,6.83-48.65,13.05-9.8,3.85-19.2,7.48-27.72,13.68-14.84,10.79-28.72,22.06-42.12,34.57-17.09,15.96-31.85,42.98-40.25,64.68-4.39,11.36-8.85,22.02-14.08,33.03-5.16,10.86-8.45,22.05-10.98,33.33h-16.96c1.18-17.57,4.97-34.66,11.54-51.63,7.78-20.1,15.7-39.64,26.76-58.02l18.84-31.33c10.7-17.8,25.39-31.88,41.96-44.26l17.13-12.8c10.46-7.82,21.53-13.76,34.1-17.62,11.52-3.53,22.39-8.06,34.29-10.3,9.96-1.88,19.26-3.78,29.04-6.54,17.34-4.89,30.79,11.86,52.12,3.4,7.72-3.06,15.34-2.66,23.43-1.31,6.83,1.14,13.14,1.92,19.52,4.7,9.76,4.25,19.84,7.16,29.29,12.21l19.56,10.46Z" fill="#738daa"/>
    <path d="M768.99,971.86c-.08.9-1.34.44-1.92.35.09-1.01,1.32-.29,1.92-.35Z" fill="#565763"/>
    <path d="M773.93,973.38c-.77-.14-1.79.02-2.05-.94.57.4,2.04-.11,2.05.94Z" fill="#565763"/>
    <circle cx="773.32" cy="970.99" r=".48" fill="#565763"/>
    <path d="M514.43,1089.33c-11.35-17.21-24.63-32.68-40.46-46.01-13.45-11.32-28.44-19.57-44.12-27.23-12.79-6.25-25.82-8.86-39.97-10.14-14.7-1.33-28.85-3.42-43.53-1.29-17.31,2.51-33.82,6.34-50.68,10.94-20.84,5.68-30.79,14.82-47.11,26.21-.07.32-.8.4-.98.65-.22,1.47-1.98,1.36-2.78,2.05-11.4,9.74-21.32,20.18-30.1,32.86-10.44,15.06-18.76,30.18-24.56,47.73-4.17,12.63-9.44,24.42-12.65,36.89h16.94c3.17-11.72,8.14-22.92,12.6-34.69.68-1.8.69-4.25,2.79-4.06-.02-.25.06-.59.15-.83,1.05-2.89,1.88-6.53,4.84-7.84l.12-.82c.56-3.8,13.97-22.5,18.47-24.91.24-.72,1.07-1.34,1.4-2,.68-1.36,2.07-1.82,3.07-2.8l2.92-2.83c5.7-5.54,11.42-11.32,18.32-15.27.56-.32.91-1.38,1.77-1.3.67-1.22,1.75-2.16,2.97-2.82.24-.13.68,0,.96-.02.38-.65,1.11-.95,1.83-1.04.24-.03.53-.13.77-.09,0-1.94,2.59-2.36,4.19-2.54l.67-.08c.11-1.69,1.76-1.45,2.89-1.89.85-.33,1.77-1.48,2.85-1.23,1.77-2.42,5.13-3.16,7.97-3.78.87-.19,1.67-1.59,2.89-1.14.49.16,1.34-1.09,1.92-.74,1.98,1.18,2.86-1.86,4.73-2.32,35.78-8.66,58.06-8.93,94.79-4.56,14.37,1.71,27.58,8.3,39.5,16.29,3.45,2.8,8.02,3.43,10.49,7.72,3.01.34,4.45,2.63,6.44,3.99,2.07,1.41,4.96,2.5,4.72,5.42.5.07,1.24.6,1.82.57,1.66-.07,3.03,1.08,3.33,2.7.86.04,1.31.89,1.97,1.24,1.88.98,3.58,2.37,4.51,4.31,2.26.87,4.27,2.54,5.03,4.88,1.77,1.08,3.36,2.49,4.5,4.22.19.28.58.78.86.92,1.62.65,2.45,2.19,3.09,3.74,7.74,7.29,13.32,16.76,19.02,26.28,6.99,11.68,11.12,24.31,13.39,37.29h25.96c-2.94-27.61-4.29-48.01-20.52-72.65Z" fill="#fbf4c8"/>
    <path d="M568.06,1161.98h-29.97c-3.51-17.35-3.18-32.02-8.99-49.89-5.22-16.04-14.19-30.11-25.38-42.76-10.23-11.57-20.76-22.04-32.71-31.76-8.2-6.67-17.22-11.41-26.02-17.18-3.81-2.5-8.09-3.85-12.19-6-11.9-6.25-24.47-9.96-37.95-11.26-8.81-.85-17.23-2.15-26.04-2.44-15.24-.49-29.66,1.23-44.33,4.56l-24.29,5.53c-18.77,4.27-37.32,14.32-50.75,27.11-1.17,1.11-2.43,2.05-3.86,2.86-.34.19-.5.71-.84.88-11.96,5.88-26.92,23.95-34.88,35.5-6.92,10.03-12.64,20.23-17.45,31.58-7.49,17.67-14.37,35.25-19.72,53.25h-12.53c2.51-13.07,7.79-25.24,12.66-38.11,15.09-39.94,27.87-71.52,61.91-99.68l20.08-16.61c10.19-8.43,21.63-14.01,33.98-19.01,14.14-5.73,28.5-8.63,43.16-12.63,21.24-5.79,41.79-6.67,63.54-3.31,20.68,3.2,39.87,7.95,58.66,17.72,30.86,16.05,57.63,38.58,78.12,66.73,18.88,25.94,16.97,46.01,27.32,76.65,3.24,9.58,6.28,18.82,8.48,28.25Z" fill="#fbe25f"/>
    <path d="M377.66,1063.73l5.27,6.56c-.68.96,1.03,2.05,1.07,3.36.11,3.92.12,7.8-1.16,12.17,3.14.94,10.03,13.51,7.98,15.59-.05,8.85-5.54,16.29-14.22,19.43-4.54,1.64-9.46.82-12.18-3.62-4.65-7.56-4.37-17.15.22-24.65-5.31-6.39-7.27-14.39-4.2-21.66,2.95-6.99,9.8-9.6,17.22-7.17ZM375.41,1077.56c-.81-1.85-1.81-2.54-3.24-2.31-.99.16-1.92.75-2.58,2.29-.86,2.02-.03,7.24,3.15,7.52s3.66-5.27,2.68-7.51ZM378.52,1096.81c-1.39-.52-3.07-.84-4.3.52-2.72,3-3.83,9.35-.37,11.95,2.07,1.56,4.84-.24,5.85-1.41,3.31-3.81,1.25-10.16-1.18-11.06Z" fill="#fbf4c8"/>
    <path d="M420.13,1161.98h-24c-5.56-7.02-8.47-16.01-4.98-24.81,2.04-5.14,6.36-9.06,10.67-10.09,5.73-1.38,11.34-.18,15.52,3.71,8.97,8.36,9.34,21.44,2.79,31.19ZM410.44,1154.27c4.81-2.17,5.6-7.2,3.73-11.25-1.67-3.59-6-6.6-10.42-4.65-4.56,2.02-5.73,7.28-3.55,11.66,1.57,3.14,5.68,6.29,10.24,4.23Z" fill="#fbf4c8"/>
    <path d="M387,1161.98h-9.56l-1.74-19.13c-1.69-.39-2.56,1.34-2.47,2.75l1.11,16.38h-9.21c-.25-4.64-.36-9.39-1-14.58-.16-1.31-2.39-1.29-2.35-.04l.4,14.62h-7.89c.43-7.53-3.57-22.35,5.07-26.15,3.06-1.35,5.74-.11,8.36,2.61,2.96-5.32,6.49-9.14,11.68-7.02,6.85,2.8,6.08,23.43,7.6,30.55Z" fill="#fbf4c8"/>
    <path d="M476.23,1161.98h-10.21l-3.73-26.62c-2.67-.03-4.36.38-6.59.1-1.01-3.54-1.36-6.88-1.29-10.7,8.42-.75,16.21-1.6,24.42-1.49.38,3.89.88,7.03.56,10.42-2.47.76-4.61.31-6.81,1.28l3.64,27.01Z" fill="#fbf4c8"/>
    <path d="M329.8,1161.98h-9.68c-.16-4.69-3.58-9.24-8.6-9.22-4.73.01-8.09,4.42-7.9,9.22h-8.73c-.31-6.81,1.25-14.15,7.63-17.96s13.58-3.02,19.66,1.3c4.88,3.47,7.47,10.08,7.62,16.66Z" fill="#fbf4c8"/>
    <path d="M291.08,1161.98h-9.74c-.58-4.29,1.91-12.77-3.46-12.26-1.62.15-2.31,1.52-2.3,3.57l.05,8.69h-9.86c-.43-8.09-1.21-20.34,9.55-22.85,5.75-1.34,11.86.21,14.19,5.85,2.29,5.52,1.25,11.51,1.57,17.01Z" fill="#fbf4c8"/>
    <path d="M454.42,1161.98h-9.77c-.81-2.9-.07-6.98-1.49-9.98-3.75-4.09-5.08-10.35-.97-14.97-.55-4.08-1.13-7.5-1.21-11.71,2.99-.84,5.96-1.06,9.23-.55l4.21,37.21Z" fill="#fbf4c8"/>
    <path d="M440.16,1161.98h-9.08l-3.28-35.75c3.2-.81,5.83-1.19,8.94-.53l3.42,36.28Z" fill="#fbf4c8"/>
    <path d="M236.74,1161.98h-11.46c.3-3.44,3.79-8.5,1.41-11.19-.5-.57-2.4-.53-3.1-1.64-2.07-3.28.49-6.82.06-10.01,3.31,0,6.72-.74,9.83,1.53,6.74,4.91,5.4,14.59,3.25,21.31Z" fill="#fbf4c8"/>
    <path d="M346.3,1161.98h-11.45c.42-2.92,2.79-5.27,3.09-8.78.13-1.53-3.39-.9-3.78-1.9-.74-1.94-1.87-6.12-.57-8.29,1.74-2.92,7.33-2.34,10-.88,6.95,3.8,4.48,14.14,2.7,19.85Z" fill="#fbf4c8"/>
    <path d="M351.34,1110.08c1.29,4.11,1.23,7.9,1.67,12.69-6.13,4.94-15.65,7.31-23.05,3.01-7.08-4.12-9.69-12.42-8.83-20.34.83-7.61,6.07-13.31,13.66-17.85-5.03-1.88-8.55.62-13.1-.19-1.62-4.75-1.63-10.16-1.63-15.35l22.81-3.21,7.56,27.9c-4.55,1.38-12.34,1.47-14.15,7.36-.75,2.44-.76,5.54,1.46,6.97,4.04,2.6,8.75,1.05,13.59-1.01Z" fill="#fbf4c8"/>
    <path d="M257.23,1141.2c1.93,2.83,1.46,5.98.24,8.21s-3.73,4.75-6.9,3.72c-2.68-.87-3.49-3.95-3.56-6.13-.09-2.57.81-5.42,3.33-6.99,2.13-1.32,5.23-1.22,6.89,1.19Z" fill="#fbf4c8"/>
    <path d="M51.35,735.85c-.06,1.11.34,2.12,1.23,3.25,12.94,16.36,23.41,33.71,30.23,53.53,5.73,16.67,10.67,32.75,14.56,49.91,2.77-7.94,3.01-15.89,3.43-24.31l3.01-60.33c4.09,10.1,6.1,21.04,5.64,32.67-.82,20.75-4.06,40.78-8.71,60.98-1.48,6.41-1.74,12.36-1.53,18.96.71,22.97-.73,45.26-1.33,68.14-.29,11.11,2.46,21.43,3.76,32.04,4.34-10.75,6.01-20.78,7.81-31.55,2.86-17.14,6.93-33.43,12.74-49.76l6.95-21.99-6.93,64.71c-5.35,49.94-11.74,98.67-20.89,148.06l-15.17,81.83h-39.87c.75-15.72,1.27-32.11-4.41-47.38-3.99-10.73-5.91-20.69-3.87-32.21,2.54-14.36,5.85-28.36,9.24-42.62.71-2.99-1.57-5.63-3.87-5.91,1.18-3.67.53-8.73,2.18-12.3l9.85-21.35c6.82-8.87,3.44-10.92,13.88-22.24,11.04-11.98-6.45-42.08-15.19-52.55,14.5,4.92,27.25,13.91,32.34,28.88,4.52-4.54,4.83-10.18,3.78-16.09-2.9-16.19-12.02-30.07-24.66-40.82-14-11.9-29.05-21.62-44.79-31.12-4.48-2.7-8.57-5.56-10.87-10.37,5.75,4.91,11.22,8.77,18.15,11.6,11.53,4.71,21.94,10.73,31.78,18.2-7.13-11.32-14.5-22.08-24.1-31.49-6.94-6.8-14.23-12.62-20.58-19.98l-5.15-5.98c16.57,10.16,30.55,23.89,42.32,40.1,4.72,6.5,8.9,12.65,14.08,18.36-7.21-16.65-16.9-27.51-25.87-43.6,12.53,9.81,21.61,20.33,28.45,34.37,5.29,10.87,10.67,21.15,16.5,31.69,3.45,6.22,5.35,12.44,6.89,19.01-.45-17.36-4.03-33.26-7.67-49.83-3.33-15.17-7.77-29.38-14.65-43.18-3.88-7.79-8.82-14.32-12.12-22.79,13.45,12.41,24.15,26.9,30.22,43.98,2.37,6.68,2.72,13.57,6.78,19.42.17-42.29-8.59-82.19-30.97-117.12,1.43,2.23-11.94-11.77-9.12-8.34l-3.45-4.21c-5.31-6.48-10.08-13.04-13.98-20.02-.09-1.28.66-2.09,1.47-2.9-3.59-.91,13.13,15.26,12.47,12.63Z" fill="#2c2d3b"/>
    <path d="M189.82,726.02c.3-1.11,1.29-1.96,2.04-2.72-1.75,13.56-4.4,26.73-7.65,40.56-5.93,25.26-12.53,49.64-19.71,74.56-5.1,17.68-3.46,31.45-12.05,46.72l2.39-21.51c1.06-9.51,1.21-18.62,3.02-28.12,5.18-27.26,11.93-53.48,21.19-79.63,3.69-10.41,8.08-19.76,10.78-29.86Z" fill="#2c2d3b"/>
    <circle cx="151.76" cy="886.8" r=".61" fill="#2c2d3b"/>
    <path d="M40.62,721.43c.42-.17.58-.94.97-1.21-.3.42-.62.83-.97,1.21Z" fill="#2c2d3b"/>
    <path d="M248.53,697.2l-6.16,67.41c-1.62,17.76-10.92,33.61-16.72,50.38l-5.95,17.19c1.03-17.58,3.67-33.76,7.22-50.68l12.99-61.99c2.27-10.84,7.19-20.6,8.84-30.82l-.22,8.52Z" fill="#2c2d3b"/>
    <circle cx="40.15" cy="842.06" r=".48" fill="#2c2d3b"/>
    <path d="M277.48,799.24c10.44,27.89,6.61,29.29,4.2,60.73-2.44-18.05-4.16-35.98-7.85-54.21-2.03-10.04-3.96-19.4-5.05-29.77l8.7,23.25Z" fill="#2c2d3b"/>
    <circle cx="442.34" cy="925.29" r=".61" fill="#2c2d3b"/>
    <path d="M766.79,812.52c-2.22,1.86-7.29-6.27-6.42-7.32,1.94,2.54,4.97,4.28,6.42,7.32Z" fill="#565763"/>
    <path d="M698.79,774.18l.07-.97c.45.37.26.65-.07.97Z" fill="#565763"/>
    <circle cx="701.16" cy="770.86" r=".48" fill="#565763"/>
    <path d="M289.71,670.23c-1.09.45-2.05,1.14-2.86,1.98-4.28,1.63-8.39,3.73-12.41,5.92.72-3.14,12.47-12.67,6.97-15.09,1.66-2.04,5.61.62,9.91-3.14l-1.6,10.32Z" fill="#292935"/>
    <circle cx="257.6" cy="679.45" r=".48" fill="#292935"/>
    <circle cx="258.56" cy="677.53" r=".48" fill="#292935"/>
    <path d="M46.28,1161.98H3.1v-36.56c14.11-20.85,24.88-43.73,32.73-68.11l7.55-23.44c2.3.28,4.58,2.92,3.87,5.91-3.39,14.26-6.7,28.26-9.24,42.62-2.04,11.51-.12,21.48,3.87,32.21,5.68,15.26,5.16,31.65,4.41,47.38Z" fill="#fcfcfb"/>
  </g>
</svg>