<svg id="Calque_1" data-name="Calque 1" xmlns="http://www.w3.org/2000/svg" viewBox="0 0 1508.61 1089.89">
  <g isolation="isolate" opacity=".63">
    <g id="ombre_sombre" data-name="ombre sombre" mix-blend-mode="darken">
      <path d="M465.01,518.7c-6.06-8.84-13.43-17.51-14.9-28.13-1.35-9.73,2.22-20.85-1.66-29.3-.54-1.19-1.23-2.32-2.1-3.39-.4-.49-.81-.94-1.24-1.36-1.29-1.25-2.73-2.19-4.26-2.86-6.83-2.99-15.49-.53-20.99,4.66-.07.06-.13.12-.2.2-.21.19-.41.39-.61.6-.26.27-.51.55-.75.84-6.65,7.89-8.47,21.34-8.77,31.45-.56,18.37,5.06,44.57,16.66,58.72.82.99,1.68,1.94,2.6,2.86l8.07,8.07,1.29-1.3c3.81,1.9,7.95,3.05,12.21,3.15,6.46.15,13.06-2.44,17.58-6.95h.01c2.05-2.06,3.67-4.51,4.66-7.27,2.47-6.9.84-14.24-2.36-21.02-1.49-3.15-3.31-6.17-5.24-8.97h0Z" fill="#9d9d9c"/>
      <path d="M402.69,593.56c-10.3-20.81-17.84-42.95-22.6-65.66-8.42-40.21-8.12-82.25,1-122.3.72-3.14,1.48-6.27,2.31-9.38h-.01c-29.71,56.79-29.08,126.54.88,186.49,3.36,6.72,7.09,13.31,11.18,19.75,1.07,1.68,2.16,3.35,3.28,5.01.56.83,1.13,1.66,1.7,2.48.46.67.93,1.33,1.4,2,.15.21.3.43.46.65.5.7,1.02,1.41,1.54,2.12.04.06.09.12.14.19.56.77,1.13,1.53,1.7,2.29.04.05.07.09.11.14.46.61.92,1.22,1.39,1.82.49.64.99,1.28,1.49,1.91.58.74,1.18,1.48,1.77,2.22.04.05.08.1.12.14.53.66,1.07,1.32,1.62,1.97.9,1.1,1.82,2.18,2.74,3.26.64.73,1.27,1.46,1.92,2.19.66.75,1.33,1.5,2.01,2.24,2.28,2.51,4.63,4.98,7.04,7.41l18.1,18.1.95-.95c-16.1-19.45-30.32-40.27-41.68-62.99-.19-.37-.38-.74-.56-1.11h0Z" fill="#9d9d9c"/>
      <path d="M958.87,337.35c-7.89-6.65-21.33-8.48-31.44-8.78-18.38-.56-44.57,5.06-58.72,16.66-.99.82-1.94,1.68-2.86,2.6-2.73,2.74-5.06,5.92-6.78,9.36-1.89,3.81-3.04,7.95-3.14,12.22-.15,6.46,2.44,13.05,6.95,17.57h0c2.05,2.06,4.5,3.69,7.26,4.68,6.9,2.46,14.24.84,21.02-2.37,3.15-1.49,6.17-3.31,8.97-5.23,8.84-6.07,17.51-13.43,28.13-14.9,9.73-1.35,20.85,2.21,29.3-1.66,1.19-.55,2.32-1.23,3.39-2.1.49-.39.93-.81,1.35-1.24,1.25-1.29,2.2-2.73,2.87-4.27,3.29-7.51-.02-17.25-6.31-22.54h.01Z" fill="#9d9d9c"/>
      <path d="M1021.57,301.91s-.09-.06-.14-.08-.1-.04-.14-.07c-.07-.04-.14-.08-.22-.11-.21-.11-.43-.22-.65-.33-.34-.18-.68-.35-1.02-.52-.67-.34-1.35-.68-2.03-1-1.79-.87-3.59-1.71-5.4-2.51-1.8-.81-3.61-1.58-5.43-2.32-.68-.28-1.37-.55-2.05-.82-.18-.07-.35-.14-.53-.22-.16-.05-.32-.12-.47-.18-.35-.13-.71-.27-1.06-.4-.23-.09-.47-.18-.7-.27l-1.29-.48c-5.12-1.89-10.31-3.56-15.56-5-.49-.13-.97-.27-1.45-.39-4.47-1.2-8.97-2.23-13.52-3.1-1.92-.37-3.85-.71-5.79-1.03h-.01c-1.94-.31-3.88-.6-5.82-.85-36.79-4.84-75.25.5-110.86,15.83-3.8,1.64-7.58,3.39-11.31,5.25-1.56.78-3.11,1.59-4.65,2.4-2.85,1.51-5.67,3.09-8.47,4.73-1.51.89-3.01,1.8-4.51,2.72-.56.35-1.13.7-1.7,1.06-.14.09-.28.18-.42.27-13.45,8.55-26.24,18.69-38.04,30.43l-18.11,18.1-17.79,17.8c1.14,1.58,2.27,3.19,3.37,4.8,4.67-7.47,9.79-14.7,15.38-21.65,19.45-16.1,40.27-30.31,62.99-41.68.37-.19.73-.38,1.1-.56,7.24-3.58,14.64-6.82,22.16-9.73,14.12-5.47,28.69-9.76,43.51-12.87,40.21-8.41,82.25-8.12,122.3,1,3.13.72,6.24,1.48,9.34,2.3.01,0,.03.01.04.01-.17-.09-.35-.18-.52-.27-.17-.09-.35-.18-.53-.26h0Z" fill="#9d9d9c"/>
      <path d="M715.31,593.06c.42.21.83.43,1.25.65,2.43,1.3,4.75,2.85,6.9,4.66l.03.03,6.57,5.61h0l7.02,6h0l.94.94h0l2.06,2.07.24-.24,7.72,6.59,5.07,4.34.83.7,1,.86.79.68c.91.77,2.12.58,2.83-.14h0s.01-.02.02-.03c.41-.43.64-1.05.52-1.75s-.22-1.4-.32-2.1-.19-1.39-.28-2.09c-.06-.45-.12-.91-.17-1.37-.28-2.61-.45-5.23-.52-7.85-.08-3.13,0-6.27.22-9.41.08-1.15.19-2.3.32-3.45.12-1.15.27-2.31.44-3.46.11-.75.22-1.5.35-2.25.29-1.68.63-3.36,1.01-5.03.71-3.15,1.58-6.27,2.62-9.36.08-.23.15-.45.22-.68,3.21-9.64,5.65-19.55,7.32-29.62.89-5.35,1.57-10.75,2.02-16.19.48-5.77.72-11.58.71-17.42-.02-7.73-.46-15.5-1.35-23.26-.02-.16-.05-.32-.09-.47-.1-.36-.26-.68-.45-.96-.76-1.08-2.15-1.57-3.41-1.22-.5.14-.98.41-1.39.83l-9.27,9.49-9.06,9.26-5,5.12-.41.42-1.02,1.04-5.16,5.28c.47,4.01,1.15,8.09,1.09,11.96-.05,3.7-.1,7.41-.15,11.11v.47c-.04,2.81-.08,5.62-.12,8.43-.04,3.39-.09,6.77-.13,10.16-.09,6.67-.52,14.01-3.55,19.68-1.1,2.07-2.55,3.91-4.46,5.41-.02.02-.04.04-.07.06-3.31,2.57-7.26,3.56-11.43,3.99-.43.04-.85.08-1.28.11-2.11.16-4.26.2-6.41.25,1.78.56,3.53,1.26,5.22,2.08.05.02.1.04.15.06h.02Z" fill="#9d9d9c"/>
      <path d="M810.58,634.13c2.58-3.07,4.33-6.59,5.29-10.27,1.85-7.06.76-14.72-3.22-21-.77,1.81-1.34,4.14-1.91,6.86-3.32,15.71-13.62,28.87-23.78,40.93,1.49,1.92,3.08,3.76,4.78,5.54l18.84-22.06h0Z" fill="#9d9d9c"/>
      <path d="M856.68,730.87h0c-.14-.35-.29-.69-.46-1.02-.17-.34-.36-.66-.57-.98s-.44-.62-.68-.91c-.13-.15-.26-.29-.39-.44-.13-.14-.27-.28-.41-.41-.14-.14-.29-.27-.44-.4l-6.3-5.38-36.3-31.02-14.54-12.42-3.68-3.14h0l-1.46-1.25-4.34-3.71-4.04-3.45h0l-5.44-4.65-17.48-14.94-.77-.66-14.33-12.24-.28-.24-.83-.71-5.62-4.8-22.61-19.32-.61-.52c-3.01-2.53-6.46-4.27-10.07-5.24-7.12-1.92-14.87-.84-21.2,3.17,1.81.77,4.14,1.34,6.85,1.91,8.27,1.75,15.83,5.43,22.9,10,6.84,4.43,13.21,9.69,19.31,14.85.22.19.44.37.65.55,1.77,1.5,3.54,3,5.31,4.5.28.23.55.47.83.7.02.01.03.03.05.04,4.64,3.93,9.28,7.86,13.91,11.78.5.42.99.84,1.48,1.25,6,5.08,12,10.17,18,15.25,1.81,1.53,3.63,3.07,5.44,4.6h0c2.67,2.26,5.33,4.52,8,6.78.26.22.52.44.77.65,4.73,4,9.47,8.03,13.99,12.27,4.69,4.4,9.13,9.04,13.06,14.13,7.7,10,13.33,22.05,13.57,34.67.26,12.99-5.1,25.32-9.37,37.6-.17.47-.33.94-.49,1.41l29.35-30.03v-17.07h0v17.07l-29.35,30.03h0l29.35-30.03,6.98-7.14c.5-.51.93-1.06,1.3-1.64h0s.03-.05.05-.07c0-.01.01-.02.02-.03.06-.1.11-.2.17-.3.44-.76.77-1.56,1-2.38.06-.21.12-.41.17-.62-.04.2-.11.39-.16.59.15-.54.27-1.09.34-1.64.16-1.32.06-2.67-.29-3.96-.1-.35-.21-.7-.34-1.04h0Z" fill="#9d9d9c"/>
      <path d="M930.16,685.41l-9.28-9.07-11.48-11.21-9.85-9.64h-.01c-4.01.47-8.08,1.15-11.95,1.1-10.06-.14-20.12-.28-30.17-.41-3.26-.04-6.68-.17-9.99-.64-5.96-.84-11.57-2.79-15.16-7.44-2.57-3.3-3.56-7.25-3.99-11.43-.25-2.51-.3-5.11-.36-7.69-.57,1.8-1.27,3.56-2.1,5.27-.01.04-.03.07-.04.1-1.42,2.9-3.19,5.64-5.31,8.15l-.03.03-11.61,13.59-7.5,8.78,14.11,12.06c8.68.43,17.34,2.05,25.73,4.88,2.07.7,4.17,1.35,6.26,1.98,8.97,2.68,18.13,4.71,27.43,6.09,9.97,1.48,20.08,2.22,30.25,2.19,7.72-.02,15.48-.46,23.23-1.35.16-.02.32-.05.47-.09.36-.09.68-.25.96-.45,1.07-.75,1.56-2.12,1.22-3.38-.13-.51-.4-1-.83-1.42h0Z" fill="#9d9d9c"/>
      <path d="M727.06,720.84c-4.27,4.51-8.75,8.78-13.67,12.57-10.01,7.7-22.05,13.33-34.67,13.58-12.99.25-25.32-5.11-37.6-9.38-.47-.16-.94-.32-1.41-.48l37.17,36.33c.78.76,1.65,1.37,2.57,1.83.03.02.07.05.11.07.05.02.1.04.16.07.53.25,1.09.46,1.65.61.17.05.33.09.5.13.36.08.73.14,1.1.18,3.33.39,6.8-.81,9.16-3.58l40.08-46.9c-1.65-1.77-3.36-3.45-5.15-5.03Z" fill="#9d9d9c"/>
      <path d="M642.35,696.59c1.06-.34,2.12-.7,3.18-1.06s2.11-.73,3.16-1.11c6.88-2.5,13.97-4.16,21.12-5.02,2.38-.29,4.77-.49,7.16-.6,2.43-.11,4.87-.13,7.3-.05,1.21.04,2.42.1,3.63.19,2.36.16,4.72.41,7.07.75.67.09,1.25-.12,1.67-.51.03-.02.06-.05.09-.07h0c.71-.73.88-1.95.07-2.85l-2.94-3.28-7.5-8.39-8.64-9.65-9.23-10.32c-.84-.95-1.63-1.94-2.36-2.95-.57-.79-1.12-1.58-1.62-2.4.06.2.12.41.19.61,2.25,6.99,6.24,14.19,6.15,21.2-.03,1.79-.3,3.57-.95,5.32-2.88,7.77-11.66,11.44-19.69,13.48-.17.04-.34.08-.5.12-7.9,1.99-16.48,3.68-21.87,9.75-.33.37-.64.76-.94,1.15,2.54-.59,5.05-1.26,7.56-1.95,1.33-.37,2.65-.75,3.96-1.14.65-.2,1.31-.4,1.97-.6.66-.2,1.31-.41,1.96-.62h0Z" fill="#9d9d9c"/>
    </g>
  </g>
</svg>