<svg id="bois" xmlns="http://www.w3.org/2000/svg" viewBox="0 0 1508.61 1089.89">
  <path d="M771.23,605.61c0,.5,0,1.01.02,1.52.04,1.8.16,3.59.34,5.38.01.09.02.17.03.26.64,6.14,2.06,12.18,4.2,17.96.03.08.06.16.09.24,2.64,7.03,6.35,13.67,11.05,19.68,1.49,1.92,3.08,3.76,4.78,5.54l18.84-22.06c2.58-3.07,4.33-6.59,5.29-10.27,1.85-7.06.76-14.72-3.22-21-1.07-1.68-2.35-3.27-3.82-4.71-1.32-1.29-2.75-2.39-4.25-3.35-3.38-2.16-7.16-3.48-11.03-3.95-2.58-.32-5.19-.25-7.75.19-4.69.8-9.21,2.85-12.99,6.18l-1.27,1.14c-.22,2.42-.32,4.83-.31,7.25Z" fill="#ebaf4d"/>
  <path d="M619.56,716.98l1.88-1.69c-1,.2-2.01.38-3.01.56l1.13,1.13Z" fill="#ebaf4d"/>
  <rect x="769.56" y="583.55" width="0" height="0" transform="translate(-145.04 273.3) rotate(-18.43)" fill="#ebaf4d"/>
  <polygon points="730.06 604.02 730.06 604.01 730.06 604.02 730.06 604.02" fill="#ebaf4d"/>
  <path d="M856.68,730.87h0c-.14-.35-.29-.69-.46-1.02-.17-.34-.36-.66-.57-.98-.21-.32-.44-.62-.68-.91-.13-.15-.26-.29-.39-.44-.13-.14-.27-.28-.41-.41-.14-.14-.29-.27-.44-.4l-6.3-5.38-36.3-31.02-14.54-12.42-3.68-3.14h0s0,0,0,0h0s0,0,0,0h0s0,0,0,0l-1.46-1.25-4.34-3.71-4.04-3.45h0,0s0,0,0,0h0s0,0,0,0l-5.44-4.65-17.48-14.94-.77-.66-14.33-12.24-.28-.24-.83-.71-5.62-4.8-22.61-19.32-.61-.52c-3.01-2.53-6.46-4.27-10.07-5.24-7.12-1.92-14.87-.84-21.2,3.17-1.69,1.07-3.27,2.35-4.71,3.82-1.29,1.32-2.4,2.75-3.35,4.25-3.59,5.63-4.86,12.36-3.76,18.78.8,4.69,2.85,9.21,6.18,12.99l9.19,10.27,8.64,9.65,7.02,7.85,33.05,36.93,4.63,5.18,3.94,4.39,4.78,5.35,50.35,56.26c3.77,4.22,10.15,4.62,14.41,1.11l3.88-3.88h0s29.35-30.04,29.35-30.04v-17.07h0v17.07l-29.35,30.03h0s29.35-30.03,29.35-30.03l6.98-7.14c.5-.51.93-1.06,1.3-1.64h0s.03-.05.05-.07c0-.01.01-.02.02-.03.06-.1.11-.2.17-.3.44-.76.77-1.56,1-2.38.06-.21.12-.41.17-.62-.04.2-.11.39-.16.59.15-.54.27-1.09.34-1.64.16-1.32.06-2.67-.29-3.96-.1-.35-.21-.7-.34-1.04ZM778.55,671.62h0s0,0,0,0c0,0,0,0,0,0Z" fill="#ebaf4d"/>
  <path d="M930.99,686.83c-.13-.51-.4-1-.83-1.42l-9.28-9.07-11.48-11.21-9.85-9.64h-.01l-49.63-48.5-2.48-2.43-34.19-33.41-29.11-28.45c-1.72,12.9-4.61,25.58-8.67,37.88,4.98-2.03,10.36-3.05,15.85-2.91,4.47.11,8.82.97,12.9,2.51,5.06,1.9,9.72,4.84,13.67,8.71,7.14,6.98,11.34,16.32,11.82,26.29.08,1.57.05,3.13-.05,4.68-.22,3.05-.77,6.04-1.67,8.93-.02.06-.04.13-.06.19-.57,1.8-1.27,3.56-2.1,5.27-.01.04-.03.07-.04.1-1.42,2.9-3.19,5.64-5.31,8.15l-.03.03-11.61,13.59-7.5,8.78,14.11,12.06c8.68.43,17.34,2.05,25.73,4.88,2.07.7,4.17,1.35,6.26,1.98,8.97,2.68,18.13,4.71,27.43,6.09,9.97,1.48,20.08,2.22,30.25,2.19,7.72-.02,15.48-.46,23.23-1.35.16-.02.32-.05.47-.09.36-.09.68-.25.96-.45,1.07-.75,1.56-2.12,1.22-3.38Z" fill="#ebaf4d"/>
  <path d="M727.06,720.84c-12.27-10.86-27.66-17.26-43.62-18.45-2.95-.21-5.92-.24-8.89-.1-6.86.33-13.73,1.62-20.43,3.95-.34.12-.67.24-1.01.36-1.36.49-2.73.94-4.1,1.41l-7.92,7.08-4.16,3.73c-4.22,3.78-4.62,10.15-1.11,14.42.24.29.5.57.77.84l3.11,3.04h0s37.17,36.34,37.17,36.34c.78.76,1.65,1.37,2.57,1.83.03.02.07.05.11.07.05.02.1.04.16.07.53.25,1.09.46,1.65.61.17.05.33.09.5.13.36.08.73.14,1.1.18,3.33.39,6.8-.81,9.16-3.58l40.08-46.9c-1.65-1.77-3.36-3.45-5.15-5.03Z" fill="#ebaf4d"/>
  <path d="M638.42,697.81c.65-.2,1.31-.4,1.97-.6.66-.2,1.31-.41,1.96-.62,1.06-.34,2.12-.7,3.18-1.06,1.06-.36,2.11-.73,3.16-1.11,6.88-2.5,13.97-4.16,21.12-5.02,2.38-.29,4.77-.49,7.16-.6,2.43-.11,4.87-.13,7.3-.05,1.21.04,2.42.1,3.63.19,2.36.16,4.72.41,7.07.75.67.09,1.25-.12,1.67-.51.03-.02.06-.05.09-.07h0c.71-.73.88-1.95.07-2.85l-2.94-3.28-7.5-8.39-8.64-9.65-9.23-10.32c-.84-.95-1.63-1.94-2.36-2.95-.57-.79-1.12-1.58-1.62-2.4-4.02-6.48-6.08-14-5.89-21.75.26-9.98,4.24-19.42,11.22-26.56,6.98-7.14,16.32-11.34,26.3-11.82,1.57-.08,3.13-.06,4.68.05.87.06,1.74.15,2.61.27,2.14.29,4.26.76,6.31,1.4.07.02.13.04.2.06,1.78.56,3.53,1.26,5.22,2.08.05.02.1.04.15.06.42.21.83.43,1.25.65,2.43,1.3,4.75,2.85,6.9,4.66l.03.03,6.57,5.61h0s7.02,6,7.02,6h0s0,0,0,0h0s0,0,0,0l.94.94h0s0,0,0,0h0s0,0,0,0l2.06,2.07.24-.24,7.72,6.59,5.07,4.34.83.7,1,.86.79.68c.91.77,2.12.58,2.83-.14h0s.01-.02.02-.03c.41-.43.64-1.05.52-1.75-.12-.7-.22-1.4-.32-2.1s-.19-1.39-.28-2.09c-.06-.45-.12-.91-.17-1.37-.28-2.61-.45-5.23-.52-7.85-.08-3.13,0-6.27.22-9.41.08-1.15.19-2.3.32-3.45.12-1.15.27-2.31.44-3.46.11-.75.22-1.5.35-2.25.29-1.68.63-3.36,1.01-5.03.71-3.15,1.58-6.27,2.62-9.36.08-.23.15-.45.22-.68,3.21-9.64,5.65-19.55,7.32-29.62.89-5.35,1.57-10.75,2.02-16.19.48-5.77.72-11.58.71-17.42-.02-7.73-.46-15.5-1.35-23.26-.02-.16-.05-.32-.09-.47-.1-.36-.26-.68-.45-.96-.76-1.08-2.15-1.57-3.41-1.22-.5.14-.98.41-1.39.83l-9.27,9.49-9.06,9.26-5,5.12-.41.42-1.02,1.04-5.16,5.28-9.36,9.58-1.81,1.85-8.71,8.91-10.8,11.05-17.83,18.25-106.97,109.46-21.16,21.65c-1.84,1.88-.68,5.06,1.94,5.3,15.23,1.39,30.44,1.11,45.34-.83,6.68-.87,13.29-2.07,19.81-3.61,2.54-.59,5.05-1.26,7.56-1.95,1.33-.37,2.65-.75,3.96-1.14Z" fill="#ebaf4d"/>
</svg>