<svg id="balle" xmlns="http://www.w3.org/2000/svg" viewBox="0 0 1508.61 1089.89">
  <polygon points="558.7 56.83 522.46 93.08 594.95 93.08 558.7 56.83" fill="none"/>
  <path d="M610.36,475.02h0c-.82-4.81-2.27-9.45-4.27-13.83-6.97-15.24-20.67-27.16-38.11-31.26-.42-.1-.83-.21-1.25-.3-30.2-6.37-59.95,13.02-66.32,43.22-1.75,8.31-1.55,16.59.29,24.36.66,2.8,1.54,5.54,2.61,8.19h0c.9,2.23,1.95,4.4,3.14,6.49,7.64,13.52,20.82,23.83,37.18,27.28,30.2,6.37,59.95-13.02,66.32-43.22,1.5-7.1,1.57-14.18.41-20.93h0Z" fill="#f6f6f6" stroke="#3b325b" stroke-miterlimit="10" stroke-width="7"/>
</svg>