<?xml version="1.0" encoding="UTF-8"?>
<svg id="rquette_gauche" data-name="rquette gauche" xmlns="http://www.w3.org/2000/svg" viewBox="0 0 1508.61 1089.89">
  <path d="M766.35,461.64c-5.8-22.53-15.19-43.92-27.8-63.54-1.74-2.71-3.53-5.38-5.39-8.01-.92-1.3-1.86-2.59-2.8-3.88-7.23-9.79-15.3-19.07-24.18-27.74-11.61-11.35-24.13-21.15-37.28-29.46-27.99-17.68-58.83-28.45-89.95-32.23-26.11-3.18-52.41-1.47-77.37,5.22-10.48,2.8-20.72,6.48-30.61,11.03-2.91,1.34-5.79,2.76-8.64,4.26-17.06,8.93-32.93,20.57-46.99,34.95-13.02,13.32-23.65,28.14-31.94,43.97,0,0,0,.02-.01.02-29.71,56.79-29.08,126.54.88,186.49,3.36,6.72,7.09,13.31,11.18,19.75,1.07,1.68,2.16,3.35,3.28,5.01.56.83,1.13,1.66,1.7,2.48.46.67.93,1.33,1.4,2,.15.21.3.43.46.65.5.7,1.02,1.41,1.54,2.12.04.06.09.12.14.19.56.77,1.13,1.53,1.7,2.29.04.05.07.09.11.14.46.61.92,1.22,1.39,1.82.49.64.99,1.28,1.49,1.91.58.74,1.18,1.48,1.77,2.22.04.05.08.1.12.14.53.66,1.07,1.32,1.62,1.97.9,1.1,1.82,2.18,2.74,3.26.64.73,1.27,1.46,1.92,2.19.66.75,1.33,1.5,2.01,2.24,2.28,2.51,4.63,4.98,7.04,7.41l18.1,18.1.95-.95c25.98,20.89,55.87,35.53,87.84,42.98,4.23.99,8.66-.33,11.69-3.43l27.35-27.98,130.82-133.87,11.41-11.67,20.03-20.5h.02v-.02l.43-.43,4.31-4.31,9.16-9.16,11.73-11.72-.3-.3,3.76-3.84c3.04-3.11,4.25-7.57,3.17-11.77Z" fill="#72c5c6"/>
</svg>