<svg id="raquette_droite_rouge" data-name="raquette droite rouge" xmlns="http://www.w3.org/2000/svg" viewBox="0 0 1508.61 1089.89">
  <path d="M1116.84,420.62c-2.8-10.48-6.48-20.72-11.03-30.61-1.34-2.91-2.77-5.79-4.26-8.64-8.93-17.06-20.57-32.93-34.95-46.98-13.32-13.02-28.14-23.66-43.97-31.94,0,0-.01,0-.01-.01-.17-.09-.35-.18-.52-.27-.17-.09-.35-.18-.53-.26-.04-.03-.09-.06-.14-.08-.05-.02-.1-.04-.14-.07-.07-.04-.14-.08-.22-.11-.21-.11-.43-.22-.65-.33-.34-.18-.68-.35-1.02-.52-.67-.34-1.35-.68-2.03-1-1.79-.87-3.59-1.71-5.4-2.51-1.8-.81-3.61-1.58-5.43-2.32-.68-.28-1.37-.55-2.05-.82-.18-.07-.35-.14-.53-.22-.16-.05-.32-.12-.47-.18-.35-.13-.71-.27-1.06-.4-.23-.09-.47-.18-.7-.27-.43-.16-.86-.32-1.29-.48-5.12-1.89-10.31-3.56-15.56-5-.49-.13-.97-.27-1.45-.39-4.47-1.2-8.97-2.23-13.52-3.1-1.92-.37-3.85-.71-5.79-1.03h-.01c-1.94-.31-3.88-.6-5.82-.85-36.79-4.84-75.25.5-110.86,15.83-3.8,1.64-7.58,3.39-11.31,5.25-1.56.78-3.11,1.59-4.65,2.4-2.85,1.51-5.67,3.09-8.47,4.73-1.51.89-3.01,1.8-4.51,2.72-.56.35-1.13.7-1.7,1.06-.14.09-.28.18-.42.27-13.45,8.55-26.24,18.69-38.04,30.43l-18.11,18.1-17.79,17.8c1.14,1.58,2.27,3.19,3.37,4.8,4.41,6.48,8.51,13.16,12.26,20.03,1.72,3.17,3.36,6.37,4.93,9.6,6.75,13.87,12.06,28.31,15.89,43.14.92,3.59,1.77,7.19,2.52,10.82l.7,3.38-.03.02c1.96,10.29,3.17,20.64,3.67,30.95.36,7.54.35,15.06-.06,22.54l36.72,35.89,25.03,24.46,68.22,66.67h.01s7.81,7.64,7.81,7.64l6.57,6.42-6.35-6.21,6.35,6.21,11.55,11.29,3.84,3.76c3.11,3.03,7.57,4.24,11.77,3.16,38.85-10,74.34-30.66,103.17-60.16,11.35-11.62,21.15-24.14,29.46-37.28,17.68-27.99,28.45-58.84,32.23-89.96,3.18-26.11,1.47-52.41-5.22-77.37Z" fill="#e83c5b"/>
  <rect x="769.56" y="583.55" width="0" height="0" transform="translate(-145.04 273.3) rotate(-18.43)" fill="#e83c5b"/>
  <polygon points="1022.62 302.45 1022.62 302.45 1022.62 302.45 1022.62 302.45" fill="#e83c5b"/>
</svg>