<?xml version="1.0" encoding="UTF-8"?>
<svg id="fond_raquettes" xmlns="http://www.w3.org/2000/svg" version="1.1" viewBox="0 0 1508.61 1089.89">
  <!-- Generator: Adobe Illustrator 30.2.1, SVG Export Plug-In . SVG Version: 2.1.1 Build 1)  -->
  <defs>
    <style>
      .st0 {
        fill: #3a325b;
      }
    </style>
  </defs>
  <path class="st0" d="M1133.8,437.58c-.11-.66-.21-1.32-.32-1.98-1.77-10.13-4.28-20.11-7.49-29.79-1.15-3.46-2.38-6.89-3.7-10.26-10.46-26.72-26.15-50.41-46.64-70.43-20.48-20.02-44.53-35.16-71.47-45.01-1.97-.71-3.95-1.39-5.94-2.05-11.13-3.68-22.66-6.44-34.36-8.21-13.66-2.06-27.68-2.8-41.66-2.19-13.97.6-28.02,2.55-41.77,5.8-11.2,2.65-22.27,6.19-33.02,10.52-2.56,1.03-5.12,2.1-7.65,3.22-2.36,1.06-4.7,2.17-7.03,3.3-8.9,4.32-17.5,9.19-25.77,14.6-14.47,9.45-27.94,20.52-40.27,33.14-10.91,11.16-20.63,23.26-29.08,36.14-6.83-8.86-14.3-17.27-22.39-25.18-11.44-11.17-23.78-21.05-36.93-29.6-8.12-5.28-16.54-10.05-25.25-14.28-3.96-1.92-7.97-3.75-12.05-5.46-13.24-5.54-27.02-9.84-40.97-12.8-11.68-2.48-23.57-4.02-35.42-4.61-2.16-.11-4.32-.19-6.47-.24-13.32-.27-26.63.69-39.62,2.83-.66.11-1.32.21-1.98.32-10.13,1.77-20.1,4.28-29.79,7.49-3.46,1.15-6.88,2.38-10.26,3.7-26.71,10.46-50.4,26.15-70.42,46.64-20.02,20.48-35.16,44.53-45.01,71.47-.72,1.97-1.39,3.95-2.05,5.94-3.68,11.13-6.45,22.65-8.21,34.36-2.07,13.66-2.8,27.67-2.2,41.66.61,13.97,2.56,28.02,5.81,41.77,3.28,13.87,7.9,27.56,13.74,40.67,1.06,2.36,2.16,4.7,3.29,7.03,4.33,8.9,9.2,17.5,14.6,25.77,9.46,14.47,20.53,27.94,33.14,40.27,17.13,16.73,36.45,30.7,57.42,41.51,1.58.81,3.18,1.6,4.78,2.38,18.89,9.2,38.81,15.75,59.3,19.49l3.39.62.02-.02c24.95,4.16,50.11,4.03,74.33-.26,1-.18,2.01-.36,3.01-.56l-1.88,1.69-1.59,1.43c-4.51,4.03-4.66,11.03-.34,15.25l60.11,58.74c4.32,4.23,11.32,3.92,15.24-.68l.61-.71,47.35-55.42,57,63.69,1.42,1.59c4.03,4.51,11.04,4.66,15.26.34l32.81-33.58,17.6-18,8.33-8.53c4.23-4.32,3.91-11.32-.68-15.25l-.71-.6-24.54-20.96-12.79-10.93c.46.14.92.27,1.37.42.34.1.68.22,1.02.33,3.44,1.16,6.91,2.2,10.4,3.17h0c13.1,3.66,26.58,6.02,40.25,7.09,1.61.13,3.22.24,4.83.34,7.55.42,15.15.44,22.77.07,10.31-.5,20.66-1.7,30.95-3.66l.02.02,1.41-.29,1.96-.41c1.14-.24,2.28-.5,3.42-.75,1.2-.27,2.39-.54,3.59-.83,1.27-.31,2.55-.61,3.82-.94,1.32-.34,2.64-.71,3.96-1.07,10.96-3.04,21.7-6.9,32.14-11.55,2.36-1.05,4.71-2.13,7.04-3.26,2.52-1.23,5.02-2.51,7.5-3.83.7-.37,1.4-.73,2.1-1.11,20.72-11.29,39.71-25.69,56.45-42.82,11.17-11.43,21.05-23.78,29.6-36.92,5.28-8.12,10.04-16.55,14.28-25.26,1.92-3.96,3.75-7.97,5.46-12.04,5.53-13.24,9.84-27.03,12.8-40.97,2.48-11.69,4.02-23.58,4.61-35.42.11-2.16.19-4.32.24-6.48.27-13.32-.69-26.63-2.83-39.61h0ZM920.98,676.23l-.06.06h0l.06-.06h0ZM941.43,678.62h0Z"/>
  <path class="st0" d="M592.07,541c.31-.2.6-.42.91-.62,6.95-4.69,12.91-10.53,17.69-17.4.17-.25.33-.5.49-.75,3.97-5.86,6.95-12.25,8.9-19.05.46-1.59.88-3.2,1.23-4.84,1.88-8.92,1.96-17.95.23-26.83-1.67-8.58-4.95-16.65-9.73-24-4.79-7.35-10.85-13.61-18.03-18.6-5.09-3.54-10.6-6.32-16.42-8.33-2.67-.92-5.41-1.7-8.21-2.29-8.92-1.88-17.95-1.96-26.83-.23-8.57,1.67-16.65,4.95-24,9.74-7.35,4.79-13.61,10.85-18.6,18.03-5.17,7.43-8.74,15.72-10.62,24.64-1.88,8.92-1.96,17.95-.23,26.83.25,1.29.55,2.57.88,3.84.16.64.34,1.29.52,1.92.34,1.18.7,2.35,1.11,3.51,1.79,5.16,4.21,10.09,7.23,14.72.53.81,1.08,1.6,1.64,2.39.98,1.38,2.02,2.71,3.1,4,3.86,4.64,8.3,8.73,13.29,12.2.25.17.5.32.75.49,5.89,3.98,12.31,6.97,19.15,8.93,1.56.45,3.14.86,4.75,1.2,8.92,1.88,17.95,1.96,26.83.23,1.98-.39,3.93-.87,5.85-1.42,6.41-1.85,12.49-4.63,18.15-8.31h-.03ZM500.41,472.86c6.37-30.2,36.11-49.59,66.32-43.22.42.09.83.21,1.25.3,17.44,4.09,31.14,16.02,38.11,31.26,2,4.37,3.45,9.02,4.27,13.82h0c1.16,6.75,1.09,13.83-.41,20.93-6.37,30.2-36.12,49.59-66.32,43.22-16.36-3.45-29.54-13.76-37.18-27.28-1.18-2.09-2.23-4.26-3.14-6.49h0c-1.08-2.65-1.95-5.39-2.61-8.19-1.84-7.77-2.05-16.04-.29-24.36h0Z"/>
</svg>