<?xml version="1.0" encoding="UTF-8"?>
<svg xmlns="http://www.w3.org/2000/svg" viewBox="0 0 1508.61 1089.89">
  <g isolation="isolate">
    <g id="ombres_claires" data-name="ombres claires">
      <path d="M619.56,716.98l1.88-1.69c-1,.2-2.01.38-3.01.56l1.13,1.13Z" fill="#bdbdbc" mix-blend-mode="difference" opacity=".24"/>
      <path d="M1116.84,420.62v.17c-.49,18.21-1.78,36.41-4.51,54.42-2.16,14.17-5.27,28.28-9.5,42.02-6.24,20.22-14.93,39.6-26.67,57.05-2.45,3.64-5.03,7.2-7.75,10.66-23.71,30.17-57.71,51.93-94.82,61.53-10.62,2.74-21.48,4.5-32.44,5.16-2.33.15-4.68.24-7.02.33-6.18.23-12.37.39-18.47,1.17l7.81,7.63,6.57,6.42-6.35-6.21,6.35,6.21,11.55,11.29,3.84,3.76c3.11,3.03,7.57,4.24,11.77,3.16,38.85-10,74.34-30.66,103.17-60.16,11.35-11.62,21.15-24.14,29.46-37.28,17.68-27.99,28.45-58.84,32.23-89.96,3.18-26.11,1.47-52.41-5.22-77.37Z" fill="#bdbdbc" mix-blend-mode="difference" opacity=".24"/>
      <path d="M772.11,612.28c-.17.07-.35.15-.52.23.01.09.02.17.03.26.64,6.14,2.06,12.18,4.2,17.96,1.01-1.15,1.99-2.33,2.93-3.55,1.67-2.14,3.25-4.45,3.87-7.09.76-3.27.18-5.53-1.13-6.93-2.08-2.2-5.99-2.29-9.38-.88Z" fill="#bdbdbc" mix-blend-mode="difference" opacity=".24"/>
      <rect x="769.56" y="583.55" width="0" height="0" transform="translate(-145.04 273.3) rotate(-18.43)" fill="#bdbdbc" mix-blend-mode="difference" opacity=".24"/>
      <path d="M605.52,664.92c-.71.53-1.55,1.27-2.47,2.17-.19.18-.38.37-.57.57-.15.16-.31.32-.47.48-4.9,5.17-11.23,14.09-11.16,20.13.04,3.06,1.72,5.37,6.07,6.07.94.15,2,.23,3.19.22,4.08-.02,7.92-1.8,11.5-3.74,3.25-1.76,6.48-3.76,9.12-6.31,1.19-1.16,2.27-2.44,3.16-3.87,2.85-4.56,3.38-10.95-.04-15.1-4.29-5.21-12.91-4.65-18.33-.62Z" fill="#bdbdbc" mix-blend-mode="difference" opacity=".24"/>
      <path d="M730.18,663.46c-2.42-3.16-4.91-6.28-7.51-9.29l.25-.25-6.36-6.36h-.01c-2.65-2.65-5.44-5.17-8.41-7.47-1.16-.9-2.36-1.77-3.64-2.48-1.09-.61-2.24-1.1-3.46-1.39-3.26-.76-5.51-.19-6.91,1.11-.03.03-.05.06-.08.08-2.59,2.52-2.16,7.62.22,11.31.17.26.35.52.52.78,2.37,3.57,5.11,7.02,7.99,10.4,2.17,2.54,4.4,5.06,6.6,7.56,1.91,2.17,3.79,4.33,5.57,6.51,1.14,1.4,2.31,2.81,3.59,4.08,1.29,1.28,2.68,2.41,4.28,3.24,3.21,1.65,7.5,1.78,10.14-.68.11-.11.23-.22.34-.33,2.04-2.2,2.42-5.64,1.61-8.56-.85-3.08-2.79-5.72-4.73-8.26Z" fill="#bdbdbc" mix-blend-mode="difference" opacity=".24"/>
      <path d="M738.55,398.1c-1.74-2.71-3.53-5.38-5.39-8.01-.92-1.3-1.86-2.59-2.8-3.88-7.23-9.79-15.3-19.07-24.18-27.74-11.61-11.35-24.13-21.15-37.28-29.46-27.99-17.68-58.83-28.45-89.95-32.23-26.11-3.18-52.41-1.47-77.37,5.22h.17c18.2.49,36.4,1.77,54.41,4.51,14.17,2.16,28.29,5.27,42.02,9.5,20.23,6.24,39.61,14.93,57.05,26.67,3.65,2.45,7.21,5.03,10.67,7.75,20.09,15.79,36.44,36.15,47.97,58.95.89,1.76,1.75,3.53,2.58,5.31,2.72,5.84,5.12,11.81,7.19,17.9,1.42,4.17,2.68,8.4,3.78,12.66,2.44,9.4,4.08,19.01,4.89,28.69.1,1.25.2,2.5.28,3.75.31,5.08.4,10.19.66,15.28.17,3.42.41,6.81.84,10.2l.43-.43,4.31-4.31,9.16-9.16,11.73-11.72-.3-.3h0s3.76-3.84,3.76-3.84c3.04-3.11,4.25-7.57,3.17-11.77-5.8-22.53-15.19-43.92-27.8-63.54Z" fill="#bdbdbc" mix-blend-mode="difference" opacity=".24"/>
      <polygon points="759.16 592.06 759.16 592.06 759.16 592.06 759.16 592.06 759.16 592.06" fill="#bdbdbc" mix-blend-mode="difference" opacity=".24"/>
      <path d="M539.31,458.6c2.24-.08,4.61-.48,7-1.26,8.98-2.93,14.74-9.95,12.87-15.67-.23-.7-.57-1.35-.99-1.94-3.04-4.25-10.77-5.68-18.65-3.1-8.98,2.93-14.74,9.95-12.87,15.67,1.37,4.2,6.48,6.52,12.65,6.31Z" fill="#bdbdbc" mix-blend-mode="difference" opacity=".24"/>
      <path d="M609.95,495.95c1.5-7.1,1.57-14.18.41-20.93-1.28,6.45-3.66,12.68-7.08,18.3-7.55,12.41-20.07,21.69-34.14,25.3-21.8,5.6-44.8-2.22-64.74-12.66-.36-.19-.72-.38-1.09-.56h0c.9,2.23,1.95,4.4,3.14,6.49,7.64,13.52,20.82,23.83,37.18,27.28,30.2,6.37,59.95-13.02,66.32-43.22Z" fill="#bdbdbc" mix-blend-mode="difference" opacity=".24"/>
    </g>
  </g>
</svg>